<svg width="1258" height="1139" viewBox="0 0 1258 1139" fill="none" xmlns="http://www.w3.org/2000/svg">
<rect width="975" height="693.95" rx="94.3772" fill="#0723A6"/>
<rect x="36.7793" y="38.8613" width="900.747" height="615.534" rx="46.4947" fill="#E7E7E7"/>
<rect x="374.733" y="693.951" width="224.84" height="41.637" fill="#0723A6"/>
<rect x="36.7793" y="775.143" width="900.747" height="363.63" rx="31.2278" fill="#0723A6"/>
<rect x="52.7402" y="798.043" width="120.053" height="41.637" rx="7.63345" fill="white"/>
<rect x="52.7402" y="848.007" width="70.089" height="41.637" rx="7.63345" fill="white"/>
<rect x="52.7402" y="897.972" width="84.6619" height="41.637" rx="7.63345" fill="white"/>
<rect x="52.7402" y="947.937" width="104.786" height="41.637" rx="7.63345" fill="white"/>
<rect x="52.7402" y="997.9" width="70.089" height="41.637" rx="7.63345" fill="white"/>
<rect x="252.598" y="1047.86" width="419.84" height="41.637" rx="7.63345" fill="white"/>
<rect x="131.156" y="798.043" width="41.637" height="41.637" rx="7.63345" fill="white"/>
<rect x="131.156" y="848.007" width="41.637" height="41.637" rx="7.63345" fill="white"/>
<rect x="147.118" y="897.972" width="41.637" height="41.637" rx="7.63345" fill="white"/>
<rect x="131.156" y="997.9" width="41.637" height="41.637" rx="7.63345" fill="white"/>
<rect width="38.4402" height="38.4402" rx="7.04736" transform="matrix(1 0 0 -1 181.121 839.953)" fill="white"/>
<rect x="181.121" y="848.007" width="41.637" height="41.637" rx="7.63345" fill="white"/>
<rect x="197.082" y="897.972" width="41.637" height="41.637" rx="7.63345" fill="white"/>
<rect x="167.936" y="947.937" width="41.637" height="41.637" rx="7.63345" fill="white"/>
<rect x="181.121" y="997.9" width="41.637" height="41.637" rx="7.63345" fill="white"/>
<rect width="38.4402" height="38.4402" rx="7.04736" transform="matrix(1 0 0 -1 227.249 839.953)" fill="white"/>
<rect x="231.085" y="848.007" width="41.637" height="41.637" rx="7.63345" fill="white"/>
<rect x="247.046" y="897.972" width="41.637" height="41.637" rx="7.63345" fill="white"/>
<rect x="217.9" y="947.937" width="41.637" height="41.637" rx="7.63345" fill="white"/>
<rect x="231.085" y="997.9" width="41.637" height="41.637" rx="7.63345" fill="white"/>
<rect width="38.4402" height="38.4402" rx="7.04736" transform="matrix(1 0 0 -1 273.377 839.953)" fill="white"/>
<rect x="281.05" y="848.007" width="41.637" height="41.637" rx="7.63345" fill="white"/>
<rect x="297.011" y="897.972" width="41.637" height="41.637" rx="7.63345" fill="white"/>
<rect x="267.865" y="947.937" width="41.637" height="41.637" rx="7.63345" fill="white"/>
<rect x="281.05" y="997.9" width="41.637" height="41.637" rx="7.63345" fill="white"/>
<rect x="202.633" y="1047.86" width="41.637" height="41.637" rx="7.63345" fill="white"/>
<rect x="152.669" y="1047.86" width="41.637" height="41.637" rx="7.63345" fill="white"/>
<rect x="102.705" y="1047.86" width="41.637" height="41.637" rx="7.63345" fill="white"/>
<rect x="52.7402" y="1047.86" width="41.637" height="41.637" rx="7.63345" fill="white"/>
<rect width="38.4402" height="38.4402" rx="7.04736" transform="matrix(1 0 0 -1 319.506 839.953)" fill="white"/>
<rect x="331.014" y="848.007" width="41.637" height="41.637" rx="7.63345" fill="white"/>
<rect x="346.975" y="897.972" width="41.637" height="41.637" rx="7.63345" fill="white"/>
<rect x="317.829" y="947.937" width="41.637" height="41.637" rx="7.63345" fill="white"/>
<rect x="331.014" y="997.9" width="41.637" height="41.637" rx="7.63345" fill="white"/>
<rect width="38.4402" height="38.4402" rx="7.04736" transform="matrix(1 0 0 -1 365.634 839.953)" fill="white"/>
<rect x="380.979" y="848.007" width="41.637" height="41.637" rx="7.63345" fill="white"/>
<rect x="396.939" y="897.972" width="41.637" height="41.637" rx="7.63345" fill="white"/>
<rect x="367.793" y="947.937" width="41.637" height="41.637" rx="7.63345" fill="white"/>
<rect x="380.979" y="997.9" width="41.637" height="41.637" rx="7.63345" fill="white"/>
<rect width="38.4402" height="38.4402" rx="7.04736" transform="matrix(1 0 0 -1 411.762 839.953)" fill="white"/>
<rect x="430.943" y="848.007" width="41.637" height="41.637" rx="7.63345" fill="white"/>
<rect x="446.904" y="897.972" width="41.637" height="41.637" rx="7.63345" fill="white"/>
<rect x="417.758" y="947.937" width="41.637" height="41.637" rx="7.63345" fill="white"/>
<rect x="430.943" y="997.9" width="41.637" height="41.637" rx="7.63345" fill="white"/>
<rect width="38.4402" height="38.4402" rx="7.04736" transform="matrix(1 0 0 -1 457.891 839.953)" fill="white"/>
<rect x="480.907" y="848.007" width="41.637" height="41.637" rx="7.63345" fill="white"/>
<rect x="496.869" y="897.972" width="41.637" height="41.637" rx="7.63345" fill="white"/>
<rect x="467.723" y="947.937" width="41.637" height="41.637" rx="7.63345" fill="white"/>
<rect x="480.907" y="997.9" width="41.637" height="41.637" rx="7.63345" fill="white"/>
<rect width="38.4402" height="38.4402" rx="7.04736" transform="matrix(1 0 0 -1 504.018 839.953)" fill="white"/>
<rect x="530.872" y="848.007" width="41.637" height="41.637" rx="7.63345" fill="white"/>
<rect x="546.833" y="897.972" width="41.637" height="41.637" rx="7.63345" fill="white"/>
<rect x="517.687" y="947.937" width="41.637" height="41.637" rx="7.63345" fill="white"/>
<rect x="530.872" y="997.9" width="41.637" height="41.637" rx="7.63345" fill="white"/>
<rect width="38.4402" height="38.4402" rx="7.04736" transform="matrix(1 0 0 -1 550.146 839.953)" fill="white"/>
<rect x="580.836" y="848.007" width="41.637" height="41.637" rx="7.63345" fill="white"/>
<rect x="596.797" y="897.972" width="41.637" height="41.637" rx="7.63345" fill="white"/>
<rect x="567.651" y="947.937" width="41.637" height="41.637" rx="7.63345" fill="white"/>
<rect x="580.836" y="997.9" width="41.637" height="41.637" rx="7.63345" fill="white"/>
<rect width="38.4402" height="38.4402" rx="7.04736" transform="matrix(1 0 0 -1 596.274 839.953)" fill="white"/>
<rect x="630.801" y="848.007" width="41.637" height="41.637" rx="7.63345" fill="white"/>
<rect x="646.762" y="897.972" width="41.637" height="41.637" rx="7.63345" fill="white"/>
<rect x="617.616" y="947.937" width="41.637" height="41.637" rx="7.63345" fill="white"/>
<rect x="630.801" y="997.9" width="41.637" height="41.637" rx="7.63345" fill="white"/>
<rect x="680.765" y="1047.86" width="41.637" height="41.637" rx="7.63345" fill="white"/>
<rect x="730.729" y="1047.86" width="41.637" height="41.637" rx="7.63345" fill="white"/>
<rect x="780.694" y="1047.86" width="41.637" height="41.637" rx="7.63345" fill="white"/>
<rect x="830.658" y="1047.86" width="41.637" height="41.637" rx="7.63345" fill="white"/>
<rect x="880.623" y="1047.86" width="41.637" height="41.637" rx="7.63345" fill="white"/>
<rect width="38.4402" height="38.4402" rx="7.04736" transform="matrix(1 0 0 -1 642.403 839.953)" fill="white"/>
<rect x="680.765" y="848.007" width="41.637" height="41.637" rx="7.63345" fill="white"/>
<rect x="696.726" y="897.972" width="41.637" height="41.637" rx="7.63345" fill="white"/>
<rect x="667.58" y="947.937" width="41.637" height="41.637" rx="7.63345" fill="white"/>
<rect x="680.765" y="997.9" width="41.637" height="41.637" rx="7.63345" fill="white"/>
<rect width="38.4402" height="38.4402" rx="7.04736" transform="matrix(1 0 0 -1 688.531 839.953)" fill="white"/>
<rect x="730.729" y="848.007" width="41.637" height="41.637" rx="7.63345" fill="white"/>
<rect x="746.69" y="897.972" width="41.637" height="41.637" rx="7.63345" fill="white"/>
<rect x="717.545" y="947.937" width="41.637" height="41.637" rx="7.63345" fill="white"/>
<rect x="730.729" y="997.9" width="41.637" height="41.637" rx="7.63345" fill="white"/>
<rect width="38.4402" height="38.4402" rx="7.04736" transform="matrix(1 0 0 -1 734.659 839.953)" fill="white"/>
<rect x="780.694" y="848.007" width="41.637" height="41.637" rx="7.63345" fill="white"/>
<rect x="796.655" y="897.972" width="41.637" height="41.637" rx="7.63345" fill="white"/>
<rect x="767.509" y="947.937" width="41.637" height="41.637" rx="7.63345" fill="white"/>
<rect x="780.694" y="997.9" width="41.637" height="41.637" rx="7.63345" fill="white"/>
<rect width="38.4402" height="38.4402" rx="7.04736" transform="matrix(1 0 0 -1 780.787 839.953)" fill="white"/>
<rect x="830.658" y="848.007" width="41.637" height="41.637" rx="7.63345" fill="white"/>
<rect x="817.474" y="947.937" width="41.637" height="41.637" rx="7.63345" fill="white"/>
<rect x="830.658" y="997.9" width="91.6014" height="41.637" rx="7.63345" fill="white"/>
<rect width="38.4402" height="38.4402" rx="7.04736" transform="matrix(1 0 0 -1 826.916 839.953)" fill="white"/>
<rect width="38.4402" height="38.4402" rx="7.04736" transform="matrix(1 0 0 -1 872.295 839.953)" fill="white"/>
<rect x="830.658" y="848.007" width="91.6014" height="41.637" rx="7.63345" fill="white"/>
<path fill-rule="evenodd" clip-rule="evenodd" d="M855.641 897.972C851.425 897.972 848.007 901.389 848.007 905.605V931.975C848.007 936.191 851.425 939.609 855.641 939.609H872.296V981.94C872.296 986.156 875.713 989.573 879.929 989.573H914.627C918.843 989.573 922.26 986.156 922.26 981.94V905.605C922.26 901.39 918.843 897.972 914.627 897.972H889.706C889.685 897.972 889.665 897.972 889.644 897.972H855.641Z" fill="white"/>
<rect x="880.623" y="947.937" width="41.637" height="41.637" rx="7.63345" fill="white"/>
<path d="M938 652C950 683.667 987.5 751 1041.5 767C1109 787 1180 830 1180 878" stroke="#0723A6" stroke-width="12"/>
<ellipse cx="1180" cy="975" rx="78" ry="115" fill="#0723A6"/>
<rect x="146" y="133" width="653" height="431" fill="white" stroke="#36A4E2" stroke-width="10"/>
<rect x="551" y="297" width="243" height="137" fill="#F6472C"/>
<path d="M488.623 852.88V858.38H493.383V852.88H495.723V866H493.383V860.52H488.623V866H486.283V852.88H488.623Z" fill="black"/>
<path d="M146.429 865.64V866H144.089L143.289 863.3H138.689L137.889 866H135.549V865.64L139.629 852.88H142.349L146.429 865.64ZM142.649 861.18L140.989 855.58L139.329 861.18H142.649Z" fill="black"/>
<path d="M738.6 852.88V863.86H744.76V866H736.26V852.88H738.6Z" fill="black"/>
<path d="M384.419 952.88V953.24L380.359 966H377.619L373.559 953.24V952.88H375.899L378.999 962.98L382.079 952.88H384.419Z" fill="black"/>
<path d="M288 810.04C288 811.013 287.726 811.82 287.18 812.46C286.646 813.1 285.886 813.513 284.9 813.7L287.98 818.64V819H285.52L282.3 813.8H280.76V819H278.42V805.88H283.72C285.04 805.88 286.08 806.227 286.84 806.92C287.613 807.6 288 808.527 288 809.7V810.04ZM285.66 809.7C285.66 809.153 285.486 808.74 285.14 808.46C284.806 808.167 284.32 808.02 283.68 808.02H280.76V811.76H283.68C284.333 811.76 284.826 811.613 285.16 811.32C285.493 811.027 285.66 810.6 285.66 810.04V809.7Z" fill="black"/>
<rect x="304" y="434" width="247" height="125" fill="#F6472C"/>
<rect x="282" y="432" width="127" height="131" transform="rotate(90 282 432)" fill="#FDE300"/>
<circle cx="477" cy="362" r="67" fill="#FDE300" stroke="#36A4E2" stroke-width="10"/>
<path d="M613.5 434C596.924 434 581.027 440.585 569.306 452.306C557.585 464.027 551 479.924 551 496.5C551 513.076 557.585 528.973 569.306 540.694C581.027 552.415 596.924 559 613.5 559L613.5 496.5L613.5 434Z" fill="#296E35"/>
<path d="M794 434C777.557 434 761.787 440.585 750.159 452.306C738.532 464.027 732 479.924 732 496.5C732 513.076 738.532 528.973 750.159 540.694C761.787 552.415 777.557 559 794 559L794 496.5L794 434Z" fill="#0723A6"/>
<path d="M321.823 296.219C324.741 288.074 336.259 288.074 339.177 296.219L344.267 310.426C346.103 315.551 351.958 317.976 356.881 315.65L370.525 309.204C378.348 305.508 386.492 313.652 382.796 321.475L376.35 335.119C374.024 340.042 376.449 345.897 381.574 347.733L395.781 352.823C403.926 355.741 403.926 367.259 395.781 370.177L381.574 375.267C376.449 377.103 374.024 382.958 376.35 387.881L382.796 401.525C386.492 409.348 378.348 417.492 370.525 413.796L356.881 407.35C351.958 405.024 346.103 407.449 344.267 412.574L339.177 426.781C336.259 434.926 324.741 434.926 321.823 426.781L316.733 412.574C314.897 407.449 309.042 405.024 304.119 407.35L290.475 413.796C282.652 417.492 274.508 409.348 278.204 401.525L284.65 387.881C286.976 382.958 284.551 377.103 279.426 375.267L265.219 370.177C257.074 367.259 257.074 355.741 265.219 352.823L279.426 347.733C284.551 345.897 286.976 340.042 284.65 335.119L278.204 321.475C274.508 313.652 282.652 305.508 290.475 309.204L304.119 315.65C309.042 317.976 314.897 315.551 316.733 310.426L321.823 296.219Z" fill="#0723A6"/>
<path d="M178.737 149.712C179.666 147.119 183.334 147.119 184.263 149.712L185.884 154.236C186.469 155.868 188.333 156.64 189.901 155.9L194.246 153.847C196.736 152.67 199.33 155.264 198.153 157.754L196.1 162.099C195.36 163.667 196.132 165.531 197.764 166.116L202.288 167.737C204.881 168.666 204.881 172.334 202.288 173.263L197.764 174.884C196.132 175.469 195.36 177.333 196.1 178.901L198.153 183.246C199.33 185.736 196.736 188.33 194.246 187.153L189.901 185.1C188.333 184.36 186.469 185.132 185.884 186.764L184.263 191.288C183.334 193.881 179.666 193.881 178.737 191.288L177.116 186.764C176.531 185.132 174.667 184.36 173.099 185.1L168.754 187.153C166.264 188.33 163.67 185.736 164.847 183.246L166.9 178.901C167.64 177.333 166.868 175.469 165.236 174.884L160.712 173.263C158.119 172.334 158.119 168.666 160.712 167.737L165.236 166.116C166.868 165.531 167.64 163.667 166.9 162.099L164.847 157.754C163.67 155.264 166.264 152.67 168.754 153.847L173.099 155.9C174.667 156.64 176.531 155.868 177.116 154.236L178.737 149.712Z" fill="#0723A6"/>
<rect x="136" y="123" width="17" height="17" rx="5" fill="white" stroke="#36A4E2" stroke-width="5"/>
<rect x="136" y="555" width="17" height="17" rx="5" fill="white" stroke="#36A4E2" stroke-width="5"/>
<rect x="791" y="555" width="17" height="17" rx="5" fill="white" stroke="#36A4E2" stroke-width="5"/>
<rect x="792" y="125" width="17" height="17" rx="5" fill="white" stroke="#36A4E2" stroke-width="5"/>
<line x1="738.5" y1="163.5" x2="775.5" y2="163.5" stroke="black" stroke-width="5" stroke-linecap="round"/>
<line x1="738.5" y1="173.5" x2="775.5" y2="173.5" stroke="black" stroke-width="5" stroke-linecap="round"/>
<line x1="738.5" y1="183.5" x2="775.5" y2="183.5" stroke="black" stroke-width="5" stroke-linecap="round"/>
<line x1="151" y1="207" x2="794" y2="207" stroke="black" stroke-width="2"/>
<mask id="path-122-outside-1_179_269" maskUnits="userSpaceOnUse" x="472.946" y="330.577" width="49.1613" height="50.8305" fill="black">
<rect fill="white" x="472.946" y="330.577" width="49.1613" height="50.8305"/>
<path fill-rule="evenodd" clip-rule="evenodd" d="M494.001 341.757C491.048 339.9 487.192 341.937 487.06 345.423L486.338 364.541C486.206 368.027 489.898 370.349 492.983 368.72L498.186 365.972L500.501 370.355C500.939 371.185 501.967 371.502 502.797 371.064L506.303 369.212C507.133 368.774 507.451 367.746 507.012 366.916L504.698 362.533L509.901 359.786C512.986 358.157 513.15 353.799 510.197 351.942L494.001 341.757Z"/>
</mask>
<path fill-rule="evenodd" clip-rule="evenodd" d="M494.001 341.757C491.048 339.9 487.192 341.937 487.06 345.423L486.338 364.541C486.206 368.027 489.898 370.349 492.983 368.72L498.186 365.972L500.501 370.355C500.939 371.185 501.967 371.502 502.797 371.064L506.303 369.212C507.133 368.774 507.451 367.746 507.012 366.916L504.698 362.533L509.901 359.786C512.986 358.157 513.15 353.799 510.197 351.942L494.001 341.757Z" fill="black"/>
<path d="M487.06 345.423L489.89 345.53L489.89 345.53L487.06 345.423ZM494.001 341.757L495.509 339.36L495.509 339.36L494.001 341.757ZM486.338 364.541L483.508 364.435L483.508 364.435L486.338 364.541ZM492.983 368.72L494.305 371.224L492.983 368.72ZM498.186 365.972L500.691 364.649L499.368 362.145L496.863 363.467L498.186 365.972ZM502.797 371.064L501.474 368.56L502.797 371.064ZM506.303 369.213L507.626 371.717L506.303 369.213ZM507.012 366.916L509.517 365.594L507.012 366.916ZM504.698 362.533L503.375 360.029L500.871 361.351L502.193 363.856L504.698 362.533ZM509.901 359.786L511.224 362.29L509.901 359.786ZM510.197 351.942L508.689 354.34L510.197 351.942ZM489.89 345.53C489.94 344.222 491.386 343.459 492.493 344.155L495.509 339.36C490.71 336.342 484.444 339.651 484.23 345.316L489.89 345.53ZM489.168 364.648L489.89 345.53L484.23 345.316L483.508 364.435L489.168 364.648ZM491.66 366.215C490.503 366.826 489.119 365.956 489.168 364.648L483.508 364.435C483.294 370.099 489.292 373.871 494.305 371.224L491.66 366.215ZM496.863 363.467L491.66 366.215L494.305 371.224L499.509 368.477L496.863 363.467ZM503.005 369.032L500.691 364.649L495.681 367.295L497.996 371.678L503.005 369.032ZM501.474 368.56C502.028 368.267 502.713 368.479 503.005 369.032L497.996 371.678C499.165 373.891 501.906 374.737 504.119 373.569L501.474 368.56ZM504.981 366.708L501.474 368.56L504.119 373.569L507.626 371.717L504.981 366.708ZM504.508 368.239C504.216 367.686 504.427 367 504.981 366.708L507.626 371.717C509.839 370.548 510.686 367.807 509.517 365.594L504.508 368.239ZM502.193 363.856L504.508 368.239L509.517 365.594L507.202 361.211L502.193 363.856ZM508.578 357.281L503.375 360.029L506.02 365.038L511.224 362.29L508.578 357.281ZM508.689 354.34C509.797 355.036 509.735 356.67 508.578 357.281L511.224 362.29C516.236 359.643 516.504 352.562 511.705 349.544L508.689 354.34ZM492.493 344.155L508.689 354.34L511.705 349.544L495.509 339.36L492.493 344.155Z" fill="white" mask="url(#path-122-outside-1_179_269)"/>
</svg>
