<svg width="1714" height="1915" viewBox="0 0 1714 1915" fill="none" xmlns="http://www.w3.org/2000/svg">
<rect x="158" y="1476" width="544" height="255" fill="#296E35"/>
<rect x="702" y="1476" width="255" height="255" fill="#F6472C"/>
<rect x="957" y="1476" width="255" height="255" fill="#FDE300"/>
<rect x="158" y="1221" width="544" height="255" fill="#0723A6"/>
<path fill-rule="evenodd" clip-rule="evenodd" d="M1453 745H846V1040H1011.29C1011.1 1037.02 1011 1034.02 1011 1031C1011 954.785 1072.78 893 1149 893C1225.22 893 1287 954.785 1287 1031C1287 1034.02 1286.9 1037.02 1286.71 1040H1453V745Z" fill="#0723A6"/>
<path d="M1289 1180C1289 1142.87 1274.25 1107.26 1247.99 1081.01C1221.74 1054.75 1186.13 1040 1149 1040C1111.87 1040 1076.26 1054.75 1050.01 1081.01C1023.75 1107.26 1009 1142.87 1009 1180L1149 1180H1289Z" fill="#F6472C"/>
<path d="M1289 1343C1289 1305.87 1274.25 1270.26 1247.99 1244.01C1221.74 1217.75 1186.13 1203 1149 1203C1111.87 1203 1076.26 1217.75 1050.01 1244.01C1023.75 1270.26 1009 1305.87 1009 1343L1149 1343H1289Z" fill="#296E35"/>
<path d="M1444 1349C1393.34 1349 1344.76 1369.12 1308.94 1404.94C1273.12 1440.76 1253 1489.34 1253 1540C1253 1590.66 1273.12 1639.24 1308.94 1675.06C1344.76 1710.88 1393.34 1731 1444 1731L1444 1540L1444 1349Z" fill="#F6472C"/>
<circle cx="840" cy="1342" r="134" fill="#FDE300"/>
<circle cx="292" cy="815" r="134" fill="#296E35"/>
<path d="M1149 393L1453.84 690.75H844.159L1149 393Z" fill="#F6472C"/>
<rect x="158" y="949" width="272" height="272" fill="#FDE300"/>
<line x1="596.336" y1="-4.08088e-07" x2="596.336" y2="444" stroke="#F6472C" stroke-width="18.6719"/>
<path fill-rule="evenodd" clip-rule="evenodd" d="M695.899 435.768L602.336 391L508.775 435.768H508.445V435.926L508 436.139H508.445V655.014H697.118V435.768H695.899Z" fill="#F6472C"/>
<path d="M576.966 667.43V655H622.746V715.374C588.413 711.231 519.748 715.019 519.748 763.318C519.748 823.692 621.857 850.328 670.43 818.365C719.004 786.403 714.3 747.337 714.3 747.337C714.3 747.337 729.456 788.319 721.878 813.123C714.3 837.926 697.096 853.059 676.621 867.071C655.33 881.64 629.855 886.913 603.411 886.913C548.17 888.774 454.894 860.982 451.079 773.973C448.028 704.365 533.732 673.941 576.966 667.43Z" fill="#F6472C"/>
<path d="M569.613 938.926C575.628 922.137 599.372 922.137 605.387 938.926L615.879 968.212C619.665 978.778 631.735 983.778 641.882 978.983L670.011 965.694C686.135 958.075 702.925 974.865 695.306 990.989L682.017 1019.12C677.222 1029.27 682.222 1041.34 692.788 1045.12L722.074 1055.61C738.863 1061.63 738.863 1085.37 722.074 1091.39L692.788 1101.88C682.222 1105.66 677.222 1117.73 682.017 1127.88L695.306 1156.01C702.925 1172.14 686.135 1188.92 670.011 1181.31L641.882 1168.02C631.735 1163.22 619.665 1168.22 615.879 1178.79L605.387 1208.07C599.372 1224.86 575.628 1224.86 569.613 1208.07L559.121 1178.79C555.335 1168.22 543.265 1163.22 533.118 1168.02L504.989 1181.31C488.865 1188.92 472.075 1172.14 479.694 1156.01L492.983 1127.88C497.778 1117.73 492.778 1105.66 482.212 1101.88L452.926 1091.39C436.137 1085.37 436.137 1061.63 452.926 1055.61L482.212 1045.12C492.778 1041.34 497.778 1029.27 492.983 1019.12L479.694 990.989C472.075 974.865 488.865 958.075 504.989 965.694L533.118 978.983C543.265 983.778 555.335 978.778 559.121 968.212L569.613 938.926Z" fill="white"/>
<path d="M526.5 1392.5H158V1555.5H526.5V1648.5L704 1475L526.5 1303V1392.5Z" fill="#FDE300"/>
<path fill-rule="evenodd" clip-rule="evenodd" d="M423.466 107L423.466 160.026L424.318 160.026L424.318 162.537C425.316 162.256 426.398 162.195 427.5 162.402L536.096 182.859C543.701 184.292 543.701 195.185 536.096 196.617L427.5 217.074C426.398 217.282 425.316 217.22 424.318 216.94L424.318 218.537L423.466 218.537L423.466 608L377.443 608L377.443 218.537L305 218.537L305 160.026L377.443 160.026L377.443 107L423.466 107Z" fill="#0723A6"/>
<path fill-rule="evenodd" clip-rule="evenodd" d="M235.04 109C250.657 115.292 263.673 126.702 271.955 141.36C280.237 156.019 283.293 173.056 280.624 189.68C277.954 206.303 269.716 221.527 257.26 232.854C250.383 239.109 242.445 243.971 233.887 247.254L233.887 544.138C242.807 551.847 248.453 563.244 248.453 575.96C248.453 599.178 229.631 618 206.413 618C183.194 618 164.372 599.178 164.372 575.96C164.372 561.51 171.663 548.763 182.766 541.196L182.766 248.02C176.425 245.803 170.371 242.721 164.786 238.826C150.977 229.194 140.85 215.156 136.064 199.014C131.278 182.872 132.118 165.583 138.446 149.981C144.775 134.379 156.215 121.39 170.893 113.142L186.543 140.993C178.177 145.693 171.657 153.096 168.051 161.988C164.444 170.88 163.965 180.734 166.693 189.934C169.42 199.134 175.192 207.134 183.062 212.623C190.932 218.113 200.434 220.766 210.01 220.148C219.585 219.529 228.667 215.676 235.766 209.22C242.865 202.764 247.56 194.088 249.081 184.614C250.603 175.14 248.861 165.43 244.141 157.075C239.421 148.721 232.002 142.218 223.102 138.632L235.04 109ZM226.641 575.96C226.641 587.132 217.584 596.188 206.413 596.188C195.241 596.188 186.184 587.132 186.184 575.96C186.184 564.788 195.241 555.731 206.413 555.731C217.584 555.731 226.641 564.788 226.641 575.96Z" fill="#296E35"/>
</svg>
