<svg width="1470" height="1365" viewBox="0 0 1470 1365" fill="none" xmlns="http://www.w3.org/2000/svg">
<path d="M625.385 802.079C625.385 794.922 623.975 787.835 621.236 781.222C618.497 774.61 614.482 768.602 609.422 763.541C604.361 758.48 598.353 754.466 591.74 751.727C585.128 748.988 578.041 747.578 570.884 747.578C563.726 747.578 556.639 748.988 550.027 751.727C543.415 754.466 537.406 758.48 532.346 763.541C527.285 768.602 523.27 774.61 520.531 781.222C517.792 787.835 516.383 794.922 516.383 802.079L570.884 802.079H625.385Z" fill="#36A4E2"/>
<path d="M961.75 802.079C961.75 794.922 960.341 787.835 957.602 781.222C954.863 774.61 950.848 768.602 945.787 763.541C940.726 758.48 934.718 754.466 928.106 751.727C921.494 748.988 914.406 747.578 907.249 747.578C900.092 747.578 893.005 748.988 886.393 751.727C879.78 754.466 873.772 758.48 868.711 763.541C863.65 768.602 859.636 774.61 856.897 781.222C854.158 787.835 852.748 794.922 852.748 802.079L907.249 802.079H961.75Z" fill="#36A4E2"/>
<rect x="413.438" y="856.578" width="205.893" height="205.893" rx="102.946" fill="#F6472C"/>
<rect x="858.804" y="856.578" width="205.893" height="205.893" rx="102.946" fill="#F6472C"/>
<path d="M670.527 802.221C670.527 775.794 660.029 750.45 641.343 731.763C622.656 713.076 597.311 702.578 570.884 702.578C544.457 702.578 519.113 713.076 500.426 731.763C481.739 750.45 471.241 775.794 471.241 802.221L516.625 802.221C516.625 787.831 522.341 774.03 532.517 763.854C542.692 753.678 556.494 747.962 570.884 747.962C585.275 747.962 599.076 753.678 609.252 763.854C619.427 774.03 625.144 787.831 625.144 802.221H670.527Z" fill="white"/>
<path d="M1006.89 802.221C1006.89 775.794 996.395 750.45 977.708 731.763C959.021 713.076 933.676 702.578 907.249 702.578C880.822 702.578 855.478 713.076 836.791 731.763C818.104 750.45 807.606 775.794 807.606 802.221L852.99 802.221C852.99 787.831 858.706 774.03 868.882 763.854C879.058 753.678 892.859 747.962 907.249 747.962C921.64 747.962 935.441 753.678 945.617 763.854C955.792 774.03 961.509 787.831 961.509 802.221H1006.89Z" fill="white"/>
<path d="M530.341 523.853V419.578H549.261V523.853H530.341ZM539.801 539.83C543.585 539.83 546.739 541.022 549.261 543.404C551.644 545.927 552.835 549.01 552.835 552.654C552.835 556.439 551.644 559.522 549.261 561.905C546.739 564.427 543.585 565.689 539.801 565.689C536.017 565.689 532.933 564.497 530.551 562.115C528.028 559.732 526.767 556.579 526.767 552.654C526.767 549.01 528.028 545.927 530.551 543.404C532.933 541.022 536.017 539.83 539.801 539.83Z" fill="#F6472C"/>
<path d="M945.591 523.853V419.578H926.67V523.853H945.591ZM936.131 539.83C932.346 539.83 929.193 541.022 926.67 543.404C924.288 545.927 923.096 549.01 923.096 552.654C923.096 556.439 924.288 559.522 926.67 561.905C929.193 564.427 932.346 565.689 936.131 565.689C939.915 565.689 942.998 564.497 945.381 562.115C947.904 559.732 949.165 556.579 949.165 552.654C949.165 549.01 947.904 545.927 945.381 543.404C942.998 541.022 939.915 539.83 936.131 539.83Z" fill="#F6472C"/>
<path d="M469.784 569.853V465.578H488.705V569.853H469.784ZM479.245 585.83C483.029 585.83 486.183 587.022 488.705 589.404C491.088 591.927 492.279 595.01 492.279 598.654C492.279 602.439 491.088 605.522 488.705 607.905C486.183 610.427 483.029 611.689 479.245 611.689C475.461 611.689 472.377 610.497 469.995 608.115C467.472 605.732 466.211 602.579 466.211 598.654C466.211 595.01 467.472 591.927 469.995 589.404C472.377 587.022 475.461 585.83 479.245 585.83Z" fill="#F6472C"/>
<path d="M1006.7 569.853V465.578H987.777V569.853H1006.7ZM997.237 585.83C993.453 585.83 990.299 587.022 987.777 589.404C985.394 591.927 984.203 595.01 984.203 598.654C984.203 602.439 985.394 605.522 987.777 607.905C990.299 610.427 993.453 611.689 997.237 611.689C1001.02 611.689 1004.1 610.497 1006.49 608.115C1009.01 605.732 1010.27 602.579 1010.27 598.654C1010.27 595.01 1009.01 591.927 1006.49 589.404C1004.1 587.022 1001.02 585.83 997.237 585.83Z" fill="#F6472C"/>
<path d="M420.238 638.853V534.578H439.159V638.853H420.238ZM429.699 654.83C433.483 654.83 436.636 656.022 439.159 658.404C441.542 660.927 442.733 664.01 442.733 667.654C442.733 671.439 441.542 674.522 439.159 676.905C436.636 679.427 433.483 680.689 429.699 680.689C425.914 680.689 422.831 679.497 420.448 677.115C417.926 674.732 416.664 671.579 416.664 667.654C416.664 664.01 417.926 660.927 420.448 658.404C422.831 656.022 425.914 654.83 429.699 654.83Z" fill="#F6472C"/>
<path d="M1061.19 638.853V534.578H1042.27V638.853H1061.19ZM1051.73 654.83C1047.94 654.83 1044.79 656.022 1042.27 658.404C1039.89 660.927 1038.69 664.01 1038.69 667.654C1038.69 671.439 1039.89 674.522 1042.27 676.905C1044.79 679.427 1047.94 680.689 1051.73 680.689C1055.51 680.689 1058.6 679.497 1060.98 677.115C1063.5 674.732 1064.76 671.579 1064.76 667.654C1064.76 664.01 1063.5 660.927 1060.98 658.404C1058.6 656.022 1055.51 654.83 1051.73 654.83Z" fill="#F6472C"/>
<path d="M593.1 489.853V385.578H612.021V489.853H593.1ZM602.56 505.83C606.344 505.83 609.498 507.022 612.021 509.404C614.403 511.927 615.595 515.01 615.595 518.654C615.595 522.439 614.403 525.522 612.021 527.905C609.498 530.427 606.344 531.689 602.56 531.689C598.776 531.689 595.693 530.497 593.31 528.115C590.787 525.732 589.526 522.579 589.526 518.654C589.526 515.01 590.787 511.927 593.31 509.404C595.693 507.022 598.776 505.83 602.56 505.83Z" fill="#F6472C"/>
<path d="M882.281 489.853V385.578H863.36V489.853H882.281ZM872.821 505.83C869.036 505.83 865.883 507.022 863.36 509.404C860.978 511.927 859.786 515.01 859.786 518.654C859.786 522.439 860.978 525.522 863.36 527.905C865.883 530.427 869.036 531.689 872.821 531.689C876.605 531.689 879.688 530.497 882.071 528.115C884.593 525.732 885.855 522.579 885.855 518.654C885.855 515.01 884.593 511.927 882.071 509.404C879.688 507.022 876.605 505.83 872.821 505.83Z" fill="#F6472C"/>
<path d="M659.712 454.853V350.578H678.633V454.853H659.712ZM669.172 470.83C672.956 470.83 676.11 472.022 678.633 474.404C681.015 476.927 682.206 480.01 682.206 483.654C682.206 487.439 681.015 490.522 678.633 492.905C676.11 495.427 672.956 496.689 669.172 496.689C665.388 496.689 662.305 495.497 659.922 493.115C657.399 490.732 656.138 487.579 656.138 483.654C656.138 480.01 657.399 476.927 659.922 474.404C662.305 472.022 665.388 470.83 669.172 470.83Z" fill="#F6472C"/>
<path d="M815.118 454.853V350.578H796.198V454.853H815.118ZM805.658 470.83C801.874 470.83 798.72 472.022 796.198 474.404C793.815 476.927 792.624 480.01 792.624 483.654C792.624 487.439 793.815 490.522 796.198 492.905C798.72 495.427 801.874 496.689 805.658 496.689C809.442 496.689 812.525 495.497 814.908 493.115C817.431 490.732 818.692 487.579 818.692 483.654C818.692 480.01 817.431 476.927 814.908 474.404C812.525 472.022 809.442 470.83 805.658 470.83Z" fill="#F6472C"/>
<path d="M730.728 439.853V335.578H749.649V439.853H730.728ZM740.189 455.83C743.973 455.83 747.126 457.022 749.649 459.404C752.032 461.927 753.223 465.01 753.223 468.654C753.223 472.439 752.032 475.522 749.649 477.905C747.126 480.427 743.973 481.689 740.189 481.689C736.405 481.689 733.321 480.497 730.939 478.115C728.416 475.732 727.154 472.579 727.154 468.654C727.154 465.01 728.416 461.927 730.939 459.404C733.321 457.022 736.405 455.83 740.189 455.83Z" fill="#F6472C"/>
<path d="M1391.7 736.44C1391.7 569.921 1322.86 410.222 1200.31 292.475C1077.76 174.728 911.55 108.578 738.241 108.578C564.932 108.578 398.722 174.728 276.174 292.475C153.626 410.222 84.7796 569.921 84.7795 736.44L382.405 736.44C382.405 645.764 419.895 558.801 486.627 494.684C553.359 430.566 643.867 394.545 738.241 394.545C832.614 394.545 923.122 430.566 989.855 494.684C1056.59 558.801 1094.08 645.764 1094.08 736.44H1391.7Z" fill="#F6472C"/>
<ellipse cx="738.517" cy="251.176" rx="82.8525" ry="104.598" fill="#FDE300"/>
<circle cx="452.523" cy="279.978" r="53.4" fill="#296E35"/>
<circle r="53.4" transform="matrix(-1 0 0 1 1023.74 279.978)" fill="#296E35"/>
<circle cx="399.4" cy="440.299" r="48.7206" fill="#FDE300"/>
<circle r="48.7206" transform="matrix(-1 0 0 1 1076.87 440.299)" fill="#FDE300"/>
<path d="M533.14 225.351C563.925 248.792 583.218 274.26 591.02 301.755C598.206 329.333 592.876 354.841 575.028 378.279L570.633 384.051L547.545 366.471L551.94 360.699C564.993 343.557 568.426 324.895 562.242 304.711C556.057 284.527 540.896 265.245 516.758 246.865C493.67 229.284 472.149 219.806 452.197 218.429C431.894 216.786 416.016 223.485 404.561 238.528L401.765 242.201C391.376 255.844 387.974 270.11 391.559 284.998C394.528 299.97 405.392 317.637 424.15 338.001L453.464 370.269C474.838 393.73 487.344 415.411 490.98 435.312C494.616 455.213 489.642 474.085 476.057 491.926L472.86 496.124C456.877 517.113 435.829 527.337 409.714 526.794C383.599 526.252 356.199 515.06 327.514 493.217C298.478 471.107 280.543 446.397 273.706 419.085C266.254 391.857 271.318 366.698 288.899 343.61L293.294 337.838L316.383 355.419L311.988 361.191C299.202 377.982 295.726 396.337 301.561 416.254C307.395 436.172 321.857 454.921 344.945 472.502C366.634 489.017 386.797 497.738 405.434 498.666C423.805 499.943 438.451 493.41 449.372 479.067L452.169 475.394C461.759 462.801 465.286 449.459 462.75 435.37C459.599 421.364 449.909 405.42 433.683 387.538L404.244 354.345C381.304 328.586 367.798 305.315 363.729 284.531C359.309 263.481 364.025 243.86 377.877 225.67L381.473 220.947C397.722 199.608 419.695 189.259 447.392 189.901C474.823 190.892 503.405 202.709 533.14 225.351Z" fill="#0723A6"/>
<path d="M309.483 505.999C331.42 522.703 345.045 540.938 350.358 560.704C355.672 580.471 351.785 598.948 338.697 616.135L335.856 619.867L297.523 590.678L300.365 586.946C305.875 579.71 307.208 572.329 304.364 564.803C301.519 557.278 294.217 549.038 282.457 540.084C272.28 532.334 263.332 527.664 255.612 526.073C247.719 524.708 241.793 526.626 237.832 531.827L235.765 534.541C229.222 543.135 232.153 554.299 244.561 568.034L267.404 592.931C281.954 609.013 290.766 624.654 293.839 639.856C296.686 654.886 293.373 668.62 283.902 681.058L281.061 684.79C269.523 699.942 253.892 707.332 234.167 706.961C214.216 706.418 193.837 698.224 173.031 682.382C151.773 666.194 138.826 648.476 134.191 629.226C129.158 610.03 133.099 591.952 146.014 574.99L148.855 571.259L186.849 600.189L184.007 603.921C178.669 610.931 177.395 618 180.186 625.127C182.804 632.48 189.654 640.376 200.736 648.814C210.46 656.218 219.069 660.63 226.563 662.049C233.659 663.523 239.101 661.771 242.89 656.796L244.956 654.082C247.884 650.238 248.545 645.382 246.939 639.514C245.161 633.873 241.17 627.619 234.966 620.751L212.042 595.256C197.717 579.347 189.218 563.765 186.544 548.509C183.869 533.253 187.181 519.519 196.48 507.307L199.322 503.575C211.204 487.971 227.207 480.327 247.33 480.645C267.281 481.188 287.999 489.64 309.483 505.999Z" fill="#FDE300"/>
<path d="M1160.38 505.999C1138.44 522.703 1124.82 540.938 1119.51 560.704C1114.19 580.471 1118.08 598.948 1131.17 616.135L1134.01 619.867L1172.34 590.678L1169.5 586.946C1163.99 579.71 1162.66 572.329 1165.5 564.803C1168.34 557.278 1175.65 549.038 1187.41 540.084C1197.58 532.334 1206.53 527.664 1214.25 526.073C1222.14 524.708 1228.07 526.626 1232.03 531.827L1234.1 534.541C1240.64 543.135 1237.71 554.299 1225.3 568.034L1202.46 592.931C1187.91 609.013 1179.1 624.654 1176.03 639.856C1173.18 654.886 1176.49 668.62 1185.96 681.058L1188.8 684.79C1200.34 699.942 1215.97 707.332 1235.7 706.961C1255.65 706.418 1276.03 698.224 1296.83 682.382C1318.09 666.194 1331.04 648.476 1335.67 629.226C1340.71 610.03 1336.77 591.952 1323.85 574.99L1321.01 571.259L1283.02 600.189L1285.86 603.921C1291.19 610.931 1292.47 618 1289.68 625.127C1287.06 632.48 1280.21 640.376 1269.13 648.814C1259.4 656.218 1250.79 660.63 1243.3 662.049C1236.2 663.523 1230.76 661.771 1226.97 656.796L1224.91 654.082C1221.98 650.238 1221.32 645.382 1222.93 639.514C1224.7 633.873 1228.69 627.619 1234.9 620.751L1257.82 595.256C1272.15 579.347 1280.65 563.765 1283.32 548.509C1285.99 533.253 1282.68 519.519 1273.38 507.307L1270.54 503.575C1258.66 487.971 1242.66 480.327 1222.53 480.645C1202.58 481.188 1181.87 489.64 1160.38 505.999Z" fill="#FDE300"/>
<path d="M758.469 245.517L804.204 271.016L792.872 290.444L749.16 264.54L750.374 312.3H726.899L728.113 264.54L684.401 290.444L673.068 271.016L718.804 245.517L673.068 220.424L684.401 200.591L728.113 226.495L726.899 179.14H750.374L749.16 226.495L792.872 200.591L804.204 220.424L758.469 245.517Z" fill="white"/>
<rect x="492.169" y="690.578" width="64.9822" height="33.4906" transform="rotate(45 492.169 690.578)" fill="white"/>
<rect width="64.9822" height="33.4906" transform="matrix(-0.707107 0.707107 0.707107 0.707107 647.662 690.578)" fill="white"/>
<rect x="587.859" y="662.578" width="64.9822" height="33.4906" transform="rotate(90 587.859 662.578)" fill="white"/>
<path d="M943.126 225.351C912.342 248.792 893.049 274.26 885.246 301.755C878.061 329.333 883.391 354.841 901.238 378.279L905.634 384.051L928.722 366.471L924.327 360.699C911.274 343.557 907.84 324.895 914.025 304.711C920.21 284.527 935.371 265.245 959.509 246.865C982.597 229.284 1004.12 219.806 1024.07 218.429C1044.37 216.786 1060.25 223.485 1071.71 238.528L1074.5 242.201C1084.89 255.844 1088.29 270.11 1084.71 284.998C1081.74 299.97 1070.88 317.637 1052.12 338.001L1022.8 370.269C1001.43 393.73 988.923 415.411 985.287 435.312C981.651 455.213 986.625 474.085 1000.21 491.926L1003.41 496.124C1019.39 517.113 1040.44 527.337 1066.55 526.794C1092.67 526.252 1120.07 515.06 1148.75 493.217C1177.79 471.107 1195.72 446.397 1202.56 419.085C1210.01 391.857 1204.95 366.698 1187.37 343.61L1182.97 337.838L1159.88 355.419L1164.28 361.191C1177.07 377.982 1180.54 396.337 1174.71 416.254C1168.87 436.172 1154.41 454.921 1131.32 472.502C1109.63 489.017 1089.47 497.738 1070.83 498.666C1052.46 499.943 1037.82 493.41 1026.89 479.067L1024.1 475.394C1014.51 462.801 1010.98 449.459 1013.52 435.37C1016.67 421.364 1026.36 405.42 1042.58 387.538L1072.02 354.345C1094.96 328.586 1108.47 305.315 1112.54 284.531C1116.96 263.481 1112.24 243.86 1098.39 225.67L1094.79 220.947C1078.54 199.608 1056.57 189.259 1028.87 189.901C1001.44 190.892 972.861 202.709 943.126 225.351Z" fill="#0723A6"/>
<rect x="828.535" y="690.578" width="64.9822" height="33.4906" transform="rotate(45 828.535 690.578)" fill="white"/>
<rect width="64.9822" height="33.4906" transform="matrix(-0.707107 0.707107 0.707107 0.707107 984.028 690.578)" fill="white"/>
<rect x="924.225" y="662.578" width="64.9822" height="33.4906" transform="rotate(90 924.225 662.578)" fill="white"/>
<path d="M382.609 918.45L344.018 918.45L344.018 777.255L252.763 777.255L252.763 910.732L214.626 910.732L214.626 777.255L123.371 777.255L123.371 918.45L84.78 918.45L84.78 734.578L382.609 734.578L382.609 918.45Z" fill="#F6472C"/>
<path d="M1391.7 919.45L1353.18 919.45L1353.18 778.255L1262.1 778.255L1262.1 911.732L1224.03 911.732L1224.03 778.255L1132.94 778.255L1132.94 919.45L1094.42 919.45L1094.42 735.578L1391.7 735.578L1391.7 919.45Z" fill="#F6472C"/>
<ellipse cx="1256" cy="445.452" rx="33.8567" ry="25.8742" fill="#296E35"/>
<ellipse cx="220.482" cy="445.452" rx="33.8567" ry="25.8742" fill="#296E35"/>
</svg>
