<svg width="1162" height="1461" viewBox="0 0 1162 1461" fill="none" xmlns="http://www.w3.org/2000/svg">
<path d="M315.426 325.897V376H288.097C269.049 376 254.557 370.203 244.619 358.609C229.16 373.516 208.318 380.969 182.094 380.969C159.458 380.969 141.514 375.448 128.264 364.406C115.29 353.364 108.803 338.319 108.803 319.272C108.803 302.433 114.324 288.906 125.366 278.693C136.408 268.479 152.971 261.992 175.055 259.231L232.197 251.778V242.668C231.645 223.345 220.741 213.683 199.485 213.683C188.443 213.683 180.023 216.029 174.226 220.722C168.705 225.415 165.945 232.178 165.945 241.012V243.91H110.873V241.012C110.873 217.272 118.878 198.362 134.889 184.284C150.9 170.205 172.708 163.166 200.313 163.166C227.918 163.166 249.312 170.205 264.495 184.284C279.677 198.362 287.269 218.376 287.269 244.324V311.404C287.269 321.066 292.099 325.897 301.761 325.897H315.426ZM189.547 336.249C198.657 336.249 206.938 334.455 214.392 330.866C221.845 327.001 227.78 321.756 232.197 315.131V291.115L186.649 298.154C178.919 299.258 172.984 301.605 168.843 305.193C164.979 308.506 163.046 312.785 163.046 318.03C163.046 323.551 165.393 327.967 170.086 331.28C175.055 334.593 181.542 336.249 189.547 336.249Z" fill="white"/>
<path d="M213.977 670.821C238.27 670.821 257.593 678.412 271.948 693.595C286.578 708.502 293.894 728.515 293.894 753.636V787.59C293.894 813.814 286.302 834.38 271.12 849.287C255.937 864.193 235.095 871.647 208.595 871.647C180.437 871.647 158.492 863.503 142.757 847.216C127.022 830.653 119.154 807.741 119.154 778.48V720.924C119.154 693.871 122.053 671.925 127.85 655.086C133.647 638.247 142.757 625.411 155.179 616.577C167.601 607.467 184.164 601.532 204.868 598.772L237.994 595.045C243.515 594.493 247.379 593.389 249.588 591.733C251.796 590.076 252.9 587.592 252.9 584.279V578.482H289.753V587.178C289.753 599.324 286.578 608.572 280.229 614.921C273.88 620.994 263.804 624.997 250.002 626.929L212.735 631.898C192.032 634.658 177.125 640.869 168.015 650.531C158.906 660.193 154.213 674.824 153.937 694.423C161.39 686.97 170.362 681.173 180.852 677.032C191.341 672.891 202.383 670.821 213.977 670.821ZM256.627 756.534C256.627 722.304 240.616 705.189 208.595 705.189C198.657 705.189 189.133 707.259 180.023 711.4C171.19 715.541 163.322 721.476 156.421 729.205V779.722C156.421 798.218 160.7 812.296 169.257 821.958C178.091 831.62 190.927 836.45 207.766 836.45C223.777 836.45 235.923 832.172 244.205 823.614C252.486 815.057 256.627 802.634 256.627 786.347V756.534Z" fill="white"/>
<path d="M497.826 173.932V269.583H626.189V173.932H637.369V376H626.189V279.935H497.826V376H486.646V173.932H497.826ZM744.611 173.932L723.493 269.583H851.442L872.973 173.932H884.568L839.433 376H827.839L849.371 279.935H721.422L699.891 376H688.296L733.431 173.932H744.611ZM991.81 173.932L949.16 269.997H1076.69L1119.34 173.932H1131.35L1041.5 376H1029.49L1072.55 279.935H944.605L901.955 376H889.947L979.801 173.932H991.81Z" fill="white"/>
<path d="M503.208 589.869V708.295H614.18V589.869H653.103V861.502H614.18V743.491H503.208V861.502H464.285V589.869H503.208ZM802.461 651.152C825.649 651.152 844.006 658.33 857.532 672.684C871.059 686.763 877.822 706.224 877.822 731.069V861.502H840.141V733.967C840.141 719.336 836.001 707.742 827.719 699.185C819.714 690.627 808.948 686.349 795.421 686.349C784.655 686.349 774.994 688.833 766.436 693.802C757.879 698.495 751.253 704.982 746.561 713.263V861.502H709.294V573.306H746.561V672.684C753.738 665.783 762.019 660.538 771.405 656.949C781.067 653.085 791.419 651.152 802.461 651.152ZM1096.52 656.121V931.895H1059.25V845.767C1044.62 859.57 1025.85 866.471 1002.94 866.471C978.921 866.471 959.735 859.156 945.381 844.525C931.026 829.618 923.849 809.881 923.849 785.312V732.311C923.849 707.742 931.026 688.143 945.381 673.512C959.735 658.606 979.059 651.152 1003.35 651.152C1014.95 651.152 1025.71 653.085 1035.65 656.949C1045.86 660.814 1054.42 666.335 1061.32 673.512L1062.98 656.121H1096.52ZM1010.39 831.275C1021.16 831.275 1030.82 828.928 1039.38 824.235C1047.93 819.542 1054.56 813.055 1059.25 804.774V713.263C1054.56 704.982 1047.8 698.495 1038.96 693.802C1030.13 688.833 1020.6 686.349 1010.39 686.349C995.484 686.349 983.614 690.627 974.78 699.185C965.947 707.742 961.53 719.336 961.53 733.967V783.656C961.53 798.287 965.947 809.881 974.78 818.438C983.614 826.996 995.484 831.275 1010.39 831.275Z" fill="white"/>
<path d="M554.76 1149.49L544.823 1186.34C557.245 1180.27 572.013 1177.23 589.129 1177.23C612.869 1177.23 631.916 1183.58 646.271 1196.28C660.625 1208.7 667.803 1224.99 667.803 1245.14C667.803 1251.21 666.974 1257.84 665.318 1265.02L661.177 1284.06C655.656 1309.74 643.51 1329.34 624.739 1342.86C605.968 1356.11 581.123 1362.74 550.206 1362.74C520.392 1362.74 496.928 1356.67 479.813 1344.52C462.974 1332.37 454.554 1315.81 454.554 1294.83C454.554 1289.03 455.107 1283.51 456.211 1278.27L457.453 1272.47H529.088L528.26 1276.61C527.984 1277.44 527.846 1278.68 527.846 1280.34C527.846 1285.86 530.33 1290.28 535.299 1293.59C540.268 1296.62 547.307 1298.14 556.417 1298.14C566.907 1298.14 574.912 1296.21 580.433 1292.35C585.954 1288.21 589.681 1281.86 591.613 1273.3L592.441 1269.16C592.993 1265.85 593.269 1263.64 593.269 1262.53C593.269 1255.36 590.647 1249.83 585.402 1245.97C580.433 1241.83 573.394 1239.76 564.284 1239.76C549.377 1239.76 538.749 1243.21 532.4 1250.11H462.008L506.728 1085.72H693.061L679.397 1149.49H554.76ZM848.491 1056.32H921.368L918.884 1067.09L722.198 1386.75H649.321L651.806 1375.99L848.491 1056.32ZM1018.51 1080.34C1038.66 1080.34 1056.33 1084.07 1071.51 1091.52C1086.97 1098.7 1098.7 1108.64 1106.71 1121.33C1114.99 1133.76 1119.13 1147.97 1119.13 1163.98C1119.13 1170.88 1118.3 1177.92 1116.65 1185.1L1096.77 1274.54C1090.42 1302.7 1077.45 1324.51 1057.85 1339.96C1038.52 1355.15 1012.99 1362.74 981.244 1362.74C960.816 1362.74 943.011 1359.84 927.828 1354.04C912.922 1347.97 901.466 1339.69 893.46 1329.2C885.455 1318.43 881.452 1306.15 881.452 1292.35C881.452 1286.55 882.004 1281.3 883.108 1276.61L883.936 1273.71H958.056L957.642 1276.61C957.366 1277.72 957.227 1279.23 957.227 1281.17C957.227 1293.86 966.613 1300.21 985.385 1300.21C1006.09 1300.21 1018.65 1290.55 1023.07 1271.23L1026.79 1254.25C1015.2 1259.5 1001.67 1262.12 986.213 1262.12C969.926 1262.12 955.571 1259.22 943.149 1253.42C930.727 1247.35 921.065 1239.07 914.164 1228.58C907.539 1218.09 904.226 1206.36 904.226 1193.38C904.226 1188.14 904.916 1182.34 906.296 1175.99L909.609 1159.43C914.578 1134.86 926.586 1115.54 945.633 1101.46C964.681 1087.38 988.973 1080.34 1018.51 1080.34ZM1007.74 1200.84C1020.72 1200.84 1031.9 1197.52 1041.28 1190.9L1045.01 1175.16C1045.84 1171.85 1046.25 1168.95 1046.25 1166.47C1046.25 1159.01 1043.63 1153.22 1038.39 1149.08C1033.42 1144.66 1026.24 1142.45 1016.85 1142.45C998.083 1142.45 986.627 1150.73 982.486 1167.3L981.244 1173.51C980.692 1176.82 980.416 1179.17 980.416 1180.55C980.416 1186.62 982.762 1191.59 987.455 1195.45C992.148 1199.04 998.911 1200.84 1007.74 1200.84Z" fill="white"/>
<path d="M401.76 1157.77L306.523 1267.92L320.602 1348.25L316.461 1357.36H262.631L248.553 1279.1H225.779L190.996 1357.36H125.159L159.941 1279.1H140.479L71.743 1357.36H0.522215L4.66296 1348.25L103.627 1236.86L90.7904 1157.77L94.9311 1148.66H148.761L160.769 1225.68H183.957L218.325 1148.66H284.163L249.795 1225.68H269.256L334.266 1148.66H405.901L401.76 1157.77Z" fill="white"/>
<circle cx="314.184" cy="359.209" r="51.2417" stroke="#F6472C" stroke-width="5.17593"/>
<circle cx="264.494" cy="585.915" r="51.2417" stroke="#F6472C" stroke-width="5.17593"/>
<line x1="446.687" y1="863.862" x2="1114.38" y2="863.862" stroke="white" stroke-width="5.17593"/>
<line x1="446.687" y1="939.431" x2="1114.38" y2="939.431" stroke="white" stroke-width="5.17593"/>
<line x1="446.687" y1="664.071" x2="1114.38" y2="664.071" stroke="white" stroke-width="5.17593"/>
<line x1="446.687" y1="591.608" x2="1114.38" y2="591.608" stroke="white" stroke-width="5.17593"/>
<line x1="446.687" y1="575.045" x2="1114.38" y2="575.045" stroke="white" stroke-width="5.17593"/>
</svg>
