<svg width="1680" height="1749" viewBox="0 0 1680 1749" fill="none" xmlns="http://www.w3.org/2000/svg">
<rect x="315" y="565" width="618" height="247" fill="#0723A6"/>
<rect x="128" width="472" height="247" fill="#FDE300"/>
<rect x="472" y="282" width="990" height="247" fill="#296E35"/>
<rect x="965" y="565" width="497" height="247" fill="#F6472C"/>
<rect x="720" y="848" width="285" height="247" fill="#296E35"/>
<rect x="128" y="848" width="559" height="247" fill="#FDE300"/>
<rect x="128" y="1422" width="1074" height="247" fill="#0723A6"/>
<path d="M998.566 801.74L991.664 768.42C1002.93 766.992 1012.77 765.247 1021.18 763.184C1029.59 761.28 1036.65 758.583 1042.36 755.092C1048.07 751.601 1052.35 746.841 1055.21 740.812C1058.07 734.624 1059.49 726.691 1059.49 717.012C1059.49 707.651 1058.07 700.193 1055.21 694.64C1052.35 689.087 1048.55 686.31 1043.79 686.31C1040.45 686.31 1037.68 687.5 1035.46 689.88C1033.23 692.101 1031.57 694.799 1030.46 697.972C1029.51 700.987 1029.03 703.684 1029.03 706.064C1029.03 707.492 1029.43 708.999 1030.22 710.586C1031.01 712.173 1032.76 713.521 1035.46 714.632C1038.15 715.743 1042.36 716.377 1048.07 716.536C1053.94 716.695 1061.87 716.139 1071.87 714.87H1111.85C1117.88 714.87 1122.17 716.457 1124.71 719.63C1127.4 722.645 1128.75 726.453 1128.75 731.054C1128.75 735.973 1127.09 740.098 1123.75 743.43C1120.42 746.603 1115.66 748.19 1109.47 748.19H1044.02C1034.03 748.19 1025.46 747 1018.32 744.62C1011.18 742.24 1005.71 738.432 1001.9 733.196C998.09 727.801 996.186 720.661 996.186 711.776C996.186 704.636 997.376 697.496 999.756 690.356C1002.29 683.216 1005.79 676.711 1010.23 670.84C1014.67 664.811 1019.83 660.051 1025.7 656.56C1031.73 652.911 1038.23 651.086 1045.21 651.086C1054.73 651.086 1063.06 654.021 1070.2 659.892C1077.34 665.763 1082.9 673.537 1086.86 683.216C1090.99 692.895 1093.05 703.446 1093.05 714.87C1093.05 732.799 1089.24 748.031 1081.63 760.566C1074.01 773.101 1063.14 782.779 1049.02 789.602C1034.9 796.583 1018.08 800.629 998.566 801.74ZM1109.81 748.19L1112.19 714.87C1119.65 714.87 1124.88 714.156 1127.9 712.728C1131.07 711.141 1132.98 708.285 1133.61 704.16C1134.25 699.876 1134.4 693.688 1134.09 685.596L1130.28 572.784H1164.07L1168.12 685.358C1168.44 693.291 1169.39 699.4 1170.98 703.684C1172.56 707.968 1175.18 710.903 1178.83 712.49C1182.64 714.077 1187.72 714.87 1194.06 714.87C1200.09 714.87 1204.38 716.457 1206.91 719.63C1209.45 722.645 1210.72 726.453 1210.72 731.054C1210.72 735.973 1209.06 740.098 1205.72 743.43C1202.39 746.603 1197.71 748.19 1191.68 748.19C1184.7 748.19 1178.2 747.397 1172.17 745.81C1166.14 744.223 1161.14 741.209 1157.17 736.766C1153.21 732.323 1150.59 725.897 1149.32 717.488L1159.79 717.726C1157.09 725.977 1153.6 732.323 1149.32 736.766C1145.03 741.05 1139.64 744.065 1133.13 745.81C1126.79 747.397 1119.01 748.19 1109.81 748.19ZM1191.62 748.19L1194 714.87C1199.72 714.87 1204.63 714.315 1208.76 713.204C1212.88 712.093 1216.38 709.872 1219.23 706.54C1222.09 703.049 1224.47 697.972 1226.37 691.308C1228.43 684.644 1230.26 675.759 1231.85 664.652L1263.02 669.888C1262.71 672.268 1262.23 675.045 1261.6 678.218C1261.12 681.391 1260.64 684.644 1260.17 687.976C1259.85 691.149 1259.69 694.164 1259.69 697.02C1259.69 699.876 1260.25 702.415 1261.36 704.636C1262.47 706.857 1264.21 708.761 1266.59 710.348C1269.13 711.776 1272.38 712.887 1276.35 713.68C1280.48 714.473 1285.47 714.87 1291.35 714.87C1297.37 714.87 1301.66 716.457 1304.2 719.63C1306.74 722.645 1308.01 726.453 1308.01 731.054C1308.01 735.973 1306.34 740.098 1303.01 743.43C1299.83 746.603 1295.15 748.19 1288.97 748.19C1281.83 748.19 1275.32 747.635 1269.45 746.524C1263.74 745.413 1258.74 743.589 1254.46 741.05C1250.33 738.353 1246.92 734.862 1244.22 730.578C1241.68 726.135 1240.1 720.741 1239.46 714.394H1250.89C1248.03 722.01 1244.38 728.119 1239.94 732.72C1235.65 737.163 1230.81 740.495 1225.42 742.716C1220.02 744.937 1214.39 746.365 1208.52 747C1202.81 747.793 1197.18 748.19 1191.62 748.19ZM1258.03 803.406C1253.42 803.406 1249.46 801.74 1246.13 798.408C1242.95 795.235 1241.37 791.427 1241.37 786.984C1241.37 782.383 1242.95 778.416 1246.13 775.084C1249.46 771.752 1253.42 770.086 1258.03 770.086C1262.47 770.086 1266.28 771.752 1269.45 775.084C1272.62 778.416 1274.21 782.383 1274.21 786.984C1274.21 791.427 1272.62 795.235 1269.45 798.408C1266.28 801.74 1262.47 803.406 1258.03 803.406ZM1216.85 803.406C1212.25 803.406 1208.28 801.74 1204.95 798.408C1201.78 795.235 1200.19 791.427 1200.19 786.984C1200.19 782.383 1201.78 778.416 1204.95 775.084C1208.28 771.752 1212.25 770.086 1216.85 770.086C1221.29 770.086 1225.1 771.752 1228.28 775.084C1231.45 778.416 1233.04 782.383 1233.04 786.984C1233.04 791.427 1231.45 795.235 1228.28 798.408C1225.1 801.74 1221.29 803.406 1216.85 803.406ZM1385.87 748.904C1378.73 748.904 1371.36 748.031 1363.74 746.286C1356.28 744.541 1349.06 741.923 1342.08 738.432C1335.1 734.941 1328.83 730.578 1323.28 725.342C1317.73 720.106 1313.28 714.077 1309.95 707.254C1306.78 700.273 1305.19 692.419 1305.19 683.692C1305.19 676.552 1306.7 669.967 1309.71 663.938C1312.73 657.909 1317.17 653.069 1323.04 649.42C1329.07 645.612 1336.37 643.708 1344.94 643.708C1353.03 643.708 1360.01 645.691 1365.88 649.658C1371.91 653.466 1376.59 658.464 1379.92 664.652C1383.26 670.681 1384.92 677.028 1384.92 683.692C1384.92 694.323 1382.3 703.684 1377.07 711.776C1371.83 719.709 1364.61 726.373 1355.41 731.768C1346.37 737.163 1336.13 741.288 1324.71 744.144C1313.28 746.841 1301.38 748.19 1289.01 748.19L1291.39 714.87C1300.43 714.87 1308.29 714.632 1314.95 714.156C1321.77 713.68 1327.64 712.649 1332.56 711.062C1337.48 709.475 1341.76 707.095 1345.41 703.922C1349.06 700.749 1351.84 697.258 1353.74 693.45C1355.81 689.483 1356.84 685.596 1356.84 681.788C1356.84 679.249 1356.44 676.869 1355.65 674.648C1355.01 672.427 1353.9 670.602 1352.32 669.174C1350.89 667.587 1348.98 666.794 1346.6 666.794C1344.07 666.794 1341.92 667.587 1340.18 669.174C1338.59 670.602 1337.32 672.506 1336.37 674.886C1335.58 677.266 1335.18 679.805 1335.18 682.502C1335.18 688.055 1336.61 693.053 1339.46 697.496C1342.48 701.939 1346.45 705.667 1351.36 708.682C1356.28 711.697 1361.68 713.997 1367.55 715.584C1373.58 717.171 1379.69 717.964 1385.87 717.964C1390.79 717.964 1394.28 717.171 1396.35 715.584C1398.41 713.997 1399.44 711.855 1399.44 709.158C1399.44 707.254 1398.96 705.271 1398.01 703.208C1397.22 700.987 1395.39 698.289 1392.54 695.116C1389.68 691.943 1385.32 688.055 1379.45 683.454C1373.58 678.694 1365.72 672.823 1355.89 665.842C1346.05 658.861 1333.67 650.372 1318.76 640.376L1337.08 614.434C1353.9 626.334 1367.94 636.727 1379.21 645.612C1390.63 654.497 1399.84 662.272 1406.82 668.936C1413.8 675.6 1419.11 681.471 1422.76 686.548C1426.57 691.467 1429.11 695.989 1430.38 700.114C1431.65 704.239 1432.28 708.365 1432.28 712.49C1432.28 720.106 1430.46 726.611 1426.81 732.006C1423.16 737.401 1417.85 741.605 1410.86 744.62C1404.04 747.476 1395.71 748.904 1385.87 748.904Z" fill="#FDE300"/>
<rect x="274" y="1130" width="285" height="254" fill="#0723A6"/>
<path d="M416.75 1167H496.5V1217.5H416.75V1167ZM390.75 1145.25V1239.25H523.75V1145.25H390.75ZM419.5 1178.5C423.25 1189.25 426.5 1203.25 427.25 1212.25L443.5 1207C442.75 1197.75 439 1184.25 434.75 1173.5L419.5 1178.5ZM423 1324.5C425.75 1337.75 427.75 1355 427.5 1366.25L451.25 1363C451 1351.75 448.75 1334.75 445.5 1321.75L423 1324.5ZM454.5 1323.5C460 1336.75 465.5 1354.25 467.25 1365.5L490.25 1359.75C488.25 1348.5 482.5 1331.5 476.5 1318.75L454.5 1323.5ZM487 1322C496.25 1335.75 506 1354.75 509.75 1367.25L533.75 1356.75C529.5 1344.5 519.5 1326.25 509.75 1312.75L487 1322ZM393.25 1315.25C388.5 1328.5 380 1344.75 370.75 1354.75L394.25 1368.75C403.75 1357.25 411.25 1339.75 416.75 1325.5L393.25 1315.25ZM477.5 1172.5C475.75 1182.5 471.5 1197 468 1206.5L482.75 1212.25C487 1204 491.75 1191 497.75 1179.5L477.5 1172.5ZM393.25 1251.75V1276.25H521.5V1251.75H393.25ZM382.25 1289.5V1315H531.25V1289.5H382.25ZM445 1155.25V1232.5H441.5V1302.25H470.25V1232.5H466.75V1155.25H445ZM323 1151.5V1178.5H350.5V1266.75H323V1294.25H376V1151.5H323ZM306.5 1151.5V1315H331.5V1151.5H306.5Z" fill="#296E35"/>
<rect x="589" y="1130" width="877" height="254" fill="#F6472C"/>
<path d="M264 864H229.5C230.25 868.5 231 881 231 886C231 897.5 230.75 928.5 230.75 957C230.75 987.25 232 1022 232 1035C232 1043.75 228.75 1045.75 224.25 1045.75C217.75 1045.75 206 1039 206 1031C206 1020.25 222 1006.75 244.5 998.25C264 990.5 286 986 307.25 986C329 986 344 995.75 344 1013C344 1031 327.75 1041.25 307.5 1044.75C299 1046.5 288 1046.5 277 1046.5L288.25 1079C298.5 1078 309.75 1077.25 321.25 1074.75C361 1065 376.5 1042.75 376.5 1013C376.5 978.5 346 958.5 307.5 958.5C288.5 958.5 263.25 962.5 241 970.5C206.25 982.75 175 1008.25 175 1032.5C175 1059 209.5 1080 233.75 1080C250.25 1080 261.25 1071.5 261.25 1040.75C261.25 1026.25 259.75 983 259.75 955.75C259.75 932.5 260.5 905.5 261.75 885.75C262 879.5 263 868.75 264 864ZM335.25 891.25L321.5 915.5C337 923 369.5 941.75 381.5 951.75L396.75 926.25C383.25 916.75 354.25 900.5 335.25 891.25ZM181.75 905L182.5 935.25C191 936.25 200.75 936.5 217.25 936.5C239.25 936.5 279.5 932 307.75 925.5L307 894.5C281.25 902 242.25 906.75 216.25 906.75C207.25 906.75 196.5 906.75 181.75 905ZM469.75 888.5L431.25 888C433 895.75 433.25 906.5 433.25 913.25C433.25 928.5 433.5 958 436 981C443 1048 466.75 1072.5 494.5 1072.5C514.5 1072.5 530 1057.5 546.75 1013.75L521.5 983.5C516.75 1003.25 507 1032.75 495 1032.75C479.25 1032.75 471.75 1008 468.25 972C466.75 953.75 466.75 935.25 466.75 919C466.75 912 468 897.25 469.75 888.5ZM594.75 894L563 904.5C590.25 935.5 603.75 996 607.5 1036.5L640.5 1023.5C637.75 985.25 618.5 922.75 594.75 894Z" fill="#296E35"/>
<path d="M399.9 633.28V693.795H438.12V633.28H482.22V794H438.12V733.73H399.9V794H355.8V633.28H399.9ZM634.047 787.385V794H589.212L583.577 770.725H542.417L536.782 794H492.192V787.385L537.762 633.28H588.722L634.047 787.385ZM575.002 734.71L563.242 686.2L551.237 734.71H575.002ZM687.961 633.28V754.065H753.376V794H644.106V633.28H687.961ZM826.541 797.185C812.657 797.185 800.407 794.49 789.791 789.1C779.337 783.71 771.252 776.36 765.536 767.05C759.819 757.577 756.961 747.123 756.961 735.69V691.835C756.961 680.238 759.819 669.785 765.536 660.475C771.252 651.002 779.337 643.57 789.791 638.18C800.407 632.79 812.657 630.095 826.541 630.095C840.424 630.095 852.592 632.79 863.046 638.18C873.662 643.57 881.829 651.002 887.546 660.475C893.262 669.785 896.121 680.238 896.121 691.835V735.69C896.121 747.287 893.262 757.74 887.546 767.05C881.829 776.36 873.662 783.71 863.046 789.1C852.592 794.49 840.424 797.185 826.541 797.185ZM826.541 756.76C834.381 756.76 840.587 754.718 845.161 750.635C849.734 746.388 852.021 740.672 852.021 733.485V693.795C852.021 686.282 849.816 680.565 845.406 676.645C841.159 672.562 834.871 670.52 826.541 670.52C818.211 670.52 811.841 672.562 807.431 676.645C803.184 680.565 801.061 686.282 801.061 693.795V733.485C801.061 741.162 803.184 746.96 807.431 750.88C811.677 754.8 818.047 756.76 826.541 756.76ZM784.891 574.725L868.681 589.18V623.725L784.891 609.27V574.725Z" fill="#F6472C"/>
<path d="M758 1L884.44 246.25H631.56L758 1Z" fill="#0723A6"/>
<path d="M1356 1422L1482.44 1667.25H1229.56L1356 1422Z" fill="#F6472C"/>
<circle cx="1027.5" cy="124.5" r="123.5" fill="#F6472C"/>
<path d="M412.5 529C396.282 529 380.222 525.806 365.239 519.599C350.255 513.393 336.64 504.296 325.172 492.828C313.704 481.36 304.607 467.745 298.401 452.761C292.194 437.778 289 421.718 289 405.5C289 389.282 292.194 373.222 298.401 358.239C304.607 343.255 313.704 329.64 325.172 318.172C336.64 306.704 350.255 297.607 365.239 291.401C380.222 285.194 396.282 282 412.5 282L412.5 405.5L412.5 529Z" fill="#F6472C"/>
<path d="M301.5 529C285.282 529 269.222 525.806 254.239 519.599C239.255 513.393 225.64 504.296 214.172 492.828C202.704 481.36 193.607 467.745 187.401 452.761C181.194 437.778 178 421.718 178 405.5C178 389.282 181.194 373.222 187.401 358.239C193.607 343.255 202.704 329.64 214.172 318.172C225.64 306.704 239.255 297.607 254.239 291.401C269.222 285.194 285.282 282 301.5 282L301.5 405.5L301.5 529Z" fill="#296E35"/>
<path d="M1154.91 863.92C1160.32 848.814 1181.68 848.814 1187.09 863.92L1196.53 890.27C1199.94 899.776 1210.8 904.274 1219.93 899.961L1245.24 888.004C1259.75 881.149 1274.85 896.255 1268 910.763L1256.04 936.071C1251.73 945.201 1256.22 956.061 1265.73 959.466L1292.08 968.907C1307.19 974.319 1307.19 995.681 1292.08 1001.09L1265.73 1010.53C1256.22 1013.94 1251.73 1024.8 1256.04 1033.93L1268 1059.24C1274.85 1073.75 1259.75 1088.85 1245.24 1082L1219.93 1070.04C1210.8 1065.73 1199.94 1070.22 1196.53 1079.73L1187.09 1106.08C1181.68 1121.19 1160.32 1121.19 1154.91 1106.08L1145.47 1079.73C1142.06 1070.22 1131.2 1065.73 1122.07 1070.04L1096.76 1082C1082.25 1088.85 1067.15 1073.75 1074 1059.24L1085.96 1033.93C1090.27 1024.8 1085.78 1013.94 1076.27 1010.53L1049.92 1001.09C1034.81 995.681 1034.81 974.319 1049.92 968.907L1076.27 959.466C1085.78 956.061 1090.27 945.201 1085.96 936.071L1074 910.763C1067.15 896.255 1082.25 881.149 1096.76 888.004L1122.07 899.961C1131.2 904.274 1142.06 899.776 1145.47 890.27L1154.91 863.92Z" fill="#0723A6"/>
<rect x="1198" width="264" height="247" fill="#0723A6"/>
</svg>
