<svg width="1022" height="1456" viewBox="0 0 1022 1456" fill="none" xmlns="http://www.w3.org/2000/svg">
<path d="M404.139 508L598.994 -83.75H209.283L404.139 508Z" fill="#0723A6"/>
<rect x="694.139" y="816" width="49" height="640" fill="#F6472C"/>
<path d="M111.939 -81.6V433.8H159.539V378.8H182.939V678H159.539V455.2H111.939V510H88.5391V-81.6H111.939Z" fill="white"/>
<path d="M301.88 489.4V510H290.28C280.946 510 274.013 507.133 269.48 501.4C262.146 508.733 252.146 512.4 239.48 512.4C228.28 512.4 219.413 509.8 212.88 504.6C206.48 499.267 203.28 492 203.28 482.8C203.28 474.667 205.88 468.267 211.08 463.6C216.413 458.8 224.546 455.667 235.48 454.2L264.08 450.2V444.8C264.08 439.733 262.48 435.867 259.28 433.2C256.213 430.4 251.68 429 245.68 429C239.546 429 234.88 430.333 231.68 433C228.48 435.667 226.88 439.467 226.88 444.4V445.8H204.08V444.4C204.08 433.2 207.88 424.333 215.48 417.8C223.08 411.133 233.346 407.8 246.28 407.8C259.213 407.8 269.213 411.067 276.28 417.6C283.346 424.133 286.88 433.333 286.88 445.2V481C286.88 486.6 289.613 489.4 295.08 489.4H301.88ZM241.08 493C246.013 493 250.48 492 254.48 490C258.613 487.867 261.813 484.867 264.08 481V468.2L239.48 471.8C235.08 472.333 231.68 473.6 229.28 475.6C227.013 477.467 225.88 479.8 225.88 482.6C225.88 485.8 227.213 488.333 229.88 490.2C232.68 492.067 236.413 493 241.08 493Z" fill="white"/>
<path d="M342.697 510C334.03 510 327.23 507.667 322.297 503C317.363 498.2 314.897 491.6 314.897 483.2V370.8H337.497V480.8C337.497 486.533 340.297 489.4 345.897 489.4H353.497V510H342.697Z" fill="white"/>
<path d="M615.724 -88.3999V-84.9999L417.134 510H389.734L206.88 -81.6V-84.9999H229.28L403.334 484L593.324 -88.3999H615.724Z" fill="white"/>
<path d="M559.106 489.4V510H547.506C538.173 510 531.24 507.133 526.706 501.4C519.373 508.733 509.373 512.4 496.706 512.4C485.506 512.4 476.64 509.8 470.106 504.6C463.706 499.267 460.506 492 460.506 482.8C460.506 474.667 463.106 468.267 468.306 463.6C473.639 458.8 481.773 455.667 492.706 454.2L521.306 450.2V444.8C521.306 439.733 519.706 435.867 516.506 433.2C513.439 430.4 508.906 429 502.906 429C496.773 429 492.106 430.333 488.906 433C485.706 435.667 484.106 439.467 484.106 444.4V445.8H461.306V444.4C461.306 433.2 465.106 424.333 472.706 417.8C480.306 411.133 490.573 407.8 503.506 407.8C516.439 407.8 526.439 411.067 533.506 417.6C540.573 424.133 544.106 433.333 544.106 445.2V481C544.106 486.6 546.839 489.4 552.306 489.4H559.106ZM498.306 493C503.24 493 507.706 492 511.706 490C515.84 487.867 519.039 484.867 521.306 481V468.2L496.706 471.8C492.306 472.333 488.906 473.6 486.506 475.6C484.239 477.467 483.106 479.8 483.106 482.6C483.106 485.8 484.44 488.333 487.106 490.2C489.906 492.067 493.64 493 498.306 493Z" fill="white"/>
<path d="M629.124 410.2V430.8H614.724C610.457 430.8 606.591 431.733 603.124 433.6C599.657 435.467 596.857 438.067 594.723 441.4V510H572.123V410.2H592.323L593.123 417C599.257 412.467 606.791 410.2 615.724 410.2H629.124Z" fill="white"/>
<path d="M122.348 895.278L99.9227 895.284L99.8997 812.41L71.4527 895.292L51.1727 895.298L22.6796 812.041L22.7027 895.306L0.277738 895.312L0.242154 767.392L29.1022 767.384L61.303 860.39L93.4522 767.366L122.312 767.358L122.348 895.278Z" fill="white"/>
<path d="M168.146 797.961L168.173 1455.5L146.138 1455.51L146.111 797.967L168.146 797.961ZM157.027 785.484C152.737 785.485 149.227 784.121 146.496 781.392C143.765 778.662 142.399 775.218 142.398 771.058C142.397 766.768 143.761 763.322 146.49 760.722C149.22 757.991 152.729 756.625 157.019 756.624C161.309 756.622 164.82 757.987 167.55 760.716C170.281 763.315 171.647 766.76 171.648 771.05C171.649 775.21 170.285 778.655 167.556 781.386C164.827 784.117 161.317 785.483 157.027 785.484Z" fill="white"/>
<path d="M226.144 818.03L226.157 865.024C226.159 871.784 229.345 875.164 235.715 875.162L251.315 875.157L251.32 895.242L234.94 895.247C225.06 895.25 217.455 892.717 212.123 887.648C206.792 882.45 204.125 875.106 204.122 865.616L204.109 818.036L180.319 818.042L180.313 797.957L198.643 797.952C200.853 797.952 202.413 797.496 203.323 796.586C204.233 795.546 204.687 793.985 204.687 791.905L204.681 772.015L226.131 772.009L226.138 797.945L256.168 797.936L256.174 818.021L226.144 818.03Z" fill="white"/>
<path d="M289.557 818.012L289.57 865.007C289.572 871.767 292.758 875.146 299.128 875.144L314.728 875.14L314.733 895.225L298.353 895.229C288.473 895.232 280.868 892.699 275.536 887.631C270.205 882.432 267.538 875.088 267.535 865.598L267.522 818.018L243.732 818.025L243.726 797.94L262.056 797.935C264.266 797.934 265.826 797.478 266.736 796.568C267.646 795.528 268.1 793.968 268.1 791.888L268.094 771.998L289.544 771.992L289.551 797.927L319.581 797.919L319.587 818.004L289.557 818.012Z" fill="white"/>
<path d="M348.607 854.655L348.607 856.995C348.609 863.365 350.43 868.305 354.071 871.814C357.712 875.323 362.848 877.076 369.478 877.075C374.808 877.073 379.227 875.902 382.737 873.561C386.376 871.22 388.26 868.359 388.389 864.979L410.424 864.973C409.777 874.723 405.684 882.589 398.146 888.572C390.738 894.554 381.118 897.546 369.288 897.55C356.418 897.553 346.082 893.981 338.28 886.833C330.478 879.555 326.576 869.872 326.572 857.782L326.566 835.552C326.564 827.622 328.317 820.666 331.825 814.685C335.334 808.574 340.272 803.893 346.641 800.641C353.141 797.259 360.55 795.567 368.87 795.565C377.19 795.563 384.471 797.25 390.711 800.629C396.952 803.877 401.764 808.491 405.145 814.47C408.657 820.449 410.414 827.403 410.416 835.333L410.422 854.638L348.607 854.655ZM368.876 816.04C362.506 816.042 357.501 817.863 353.862 821.504C350.353 825.145 348.6 830.086 348.601 836.326L348.601 836.521L388.381 836.51L388.381 836.315C388.38 830.075 386.623 825.135 383.112 821.496C379.601 817.857 374.856 816.038 368.876 816.04Z" fill="white"/>
<path d="M457.364 895.185C448.914 895.187 442.283 892.914 437.472 888.366C432.661 883.687 430.254 877.253 430.252 869.063L430.221 759.473L452.256 759.466L452.286 866.717C452.287 872.307 455.018 875.101 460.478 875.099L467.888 875.097L467.894 895.182L457.364 895.185Z" fill="white"/>
<path d="M518.363 897.508C505.753 897.512 495.742 894.654 488.331 888.936C480.919 883.219 477.212 875.42 477.209 865.54L477.208 863.395L499.243 863.388L499.244 865.534C499.245 869.694 500.806 872.748 503.927 874.697C507.047 876.646 511.987 877.62 518.747 877.618C524.597 877.616 529.147 876.835 532.397 875.274C535.646 873.583 537.271 871.243 537.27 868.253L537.269 866.693C537.268 861.753 533.107 858.504 524.787 856.946L509.576 854.221C499.825 852.403 492.284 849.156 486.953 844.477C481.752 839.799 479.15 833.884 479.148 826.734L479.148 824.589C479.145 815.879 482.783 808.858 490.062 803.526C497.47 798.194 507.154 795.526 519.114 795.523C531.334 795.52 540.955 798.377 547.977 804.095C555.128 809.683 558.706 817.352 558.708 827.102L558.709 829.247L536.869 829.253L536.868 827.108C536.867 823.078 535.371 820.154 532.381 818.334C529.39 816.385 524.71 815.412 518.34 815.413C512.75 815.415 508.395 816.196 505.276 817.757C502.286 819.188 500.792 821.333 500.792 824.193L500.793 825.753C500.794 827.963 501.899 829.913 504.11 831.602C506.32 833.162 509.505 834.331 513.665 835.11L529.071 838.03C538.692 839.848 546.103 843.161 551.304 847.969C556.505 852.778 559.107 858.692 559.109 865.712L559.11 867.857C559.112 876.827 555.409 884.043 548.001 889.505C540.592 894.837 530.713 897.505 518.363 897.508Z" fill="white"/>
<path d="M617.985 897.48C609.535 897.483 602.06 895.86 595.559 892.612C589.188 889.233 584.246 884.555 580.735 878.576C577.223 872.467 575.466 865.447 575.464 857.517L575.458 835.483C575.456 827.553 577.209 820.597 580.717 814.616C584.225 808.505 589.164 803.824 595.533 800.572C602.032 797.19 609.507 795.498 617.957 795.496C625.887 795.493 632.972 797.116 639.213 800.365C645.454 803.613 650.33 808.162 653.842 814.011C657.353 819.73 659.11 826.229 659.112 833.509L659.113 835.459L637.078 835.465L637.077 833.515C637.076 828.445 635.255 824.286 631.614 821.037C628.103 817.788 623.552 816.164 617.962 816.166C611.592 816.167 606.588 817.989 602.949 821.63C599.44 825.141 597.686 829.951 597.688 836.061L597.694 857.121C597.695 863.231 599.517 868.041 603.158 871.55C606.799 875.059 611.739 876.812 617.979 876.81C623.569 876.809 628.119 875.248 631.628 872.127C635.267 869.006 637.086 864.975 637.085 860.035L637.084 858.085L659.119 858.079L659.12 860.029C659.123 871.339 655.355 880.44 647.817 887.332C640.409 894.094 630.465 897.477 617.985 897.48Z" fill="white"/>
<path d="M724.381 795.466C735.301 795.463 744.012 798.905 750.514 805.794C757.146 812.682 760.463 821.976 760.467 833.676L760.484 1455.49L738.254 1455.5L738.237 835.437C738.235 829.717 736.544 825.103 733.163 821.594C729.782 817.955 725.492 816.136 720.292 816.137C715.872 816.138 711.907 817.114 708.397 819.065C704.888 820.886 702.094 823.487 700.015 826.868L700.034 1455.51L677.999 1455.52L677.961 759.404L699.996 759.398L700.008 803.663C706.637 798.201 714.761 795.469 724.381 795.466Z" fill="white"/>
<path d="M838.292 797.774L838.298 817.859L824.258 817.863C820.098 817.864 816.328 818.775 812.948 820.596C809.569 822.417 806.84 824.953 804.76 828.204L804.779 895.088L782.744 895.095L782.717 797.79L802.412 797.784L803.194 804.414C809.173 799.992 816.517 797.78 825.227 797.778L838.292 797.774Z" fill="white"/>
<path d="M874.259 797.764L874.286 895.069L852.251 895.075L852.224 797.77L874.259 797.764ZM863.14 785.287C858.85 785.289 855.34 783.924 852.609 781.195C849.879 778.466 850.863 -84.7688 850.862 -88.9288C850.861 -93.2188 852.225 -96.6641 854.954 -99.2649C857.684 -101.996 861.193 -103.362 865.483 -103.363C869.773 -103.364 873.284 -102 876.014 -99.2708C878.745 -96.6715 880.111 -93.2269 880.112 -88.9369C880.113 -84.7769 876.399 778.459 873.669 781.189C870.94 783.92 867.43 785.286 863.14 785.287Z" fill="white"/>
<path d="M961.507 817.825L931.477 817.833L931.499 895.053L909.464 895.059L909.442 817.84L886.432 817.846L886.427 797.761L909.437 797.754L909.434 788.199C909.431 778.839 912.029 771.689 917.228 766.747C922.427 761.806 929.836 759.334 939.456 759.331L955.056 759.327L955.061 779.412L941.021 779.416C934.651 779.417 931.467 782.733 931.469 789.363L931.472 797.748L961.502 797.74L961.507 817.825Z" fill="white"/>
<path d="M991.29 817.817L991.303 864.812C991.305 871.572 994.491 874.951 1000.86 874.949L1016.46 874.945L1016.47 895.03L1000.09 895.034C990.207 895.037 982.601 892.504 977.27 887.435C971.938 882.237 969.271 874.893 969.269 865.403L969.255 817.823L945.465 817.83L945.46 797.744L963.79 797.739C966 797.739 967.56 797.283 968.469 796.373C969.379 795.333 969.834 793.773 969.833 791.693L969.828 771.803L991.278 771.797L991.285 797.732L1021.31 797.723L1021.32 817.808L991.29 817.817Z" fill="white"/>
</svg>
