<svg width="711" height="961" viewBox="0 0 711 961" fill="none" xmlns="http://www.w3.org/2000/svg">
<rect width="710.377" height="961" fill="white"/>
<path d="M71.6614 111.769H61.7825V57.3816C59.2331 58.373 56.2235 58.8687 52.7535 58.8687H44.5742V49.7334H52.3286C55.4445 49.7334 57.7814 49.0961 59.3394 47.8214C60.9681 46.4759 61.7825 44.5638 61.7825 42.0853H71.6614V111.769ZM112.869 113.043C108.124 113.043 103.875 112.052 100.122 110.069C96.3689 108.086 93.43 105.36 91.3055 101.89C89.2518 98.3489 88.225 94.3831 88.225 89.9925V64.0737C88.225 59.6123 89.2518 55.6466 91.3055 52.1766C93.43 48.6358 96.3689 45.8739 100.122 43.8911C103.875 41.9082 108.124 40.9168 112.869 40.9168C117.614 40.9168 121.827 41.9082 125.51 43.8911C129.263 45.8739 132.167 48.6358 134.22 52.1766C136.345 55.7174 137.407 59.6831 137.407 64.0737V89.9925C137.407 94.3831 136.345 98.3489 134.22 101.89C132.167 105.36 129.263 108.086 125.51 110.069C121.827 112.052 117.614 113.043 112.869 113.043ZM112.869 103.802C117.401 103.802 120.978 102.527 123.598 99.9776C126.218 97.3574 127.528 93.8166 127.528 89.3552V64.6049C127.528 60.2143 126.183 56.7088 123.492 54.0886C120.871 51.4684 117.33 50.1583 112.869 50.1583C108.337 50.1583 104.725 51.4684 102.034 54.0886C99.414 56.638 98.1038 60.1434 98.1038 64.6049V89.3552C98.1038 93.7458 99.414 97.2512 102.034 99.8714C104.725 102.492 108.337 103.802 112.869 103.802Z" fill="black"/>
<line x1="166.391" y1="41.4932" x2="166.391" y2="912.866" stroke="black" stroke-width="0.829879"/>
<rect x="179.254" y="41.4932" width="443.155" height="580.915" fill="#F6472C"/>
<path d="M626.746 50.7048L626.497 50.7048L626.497 49.1612L629.036 48.3646L629.036 44.2484L626.497 43.4517L626.497 41.9081L626.746 41.9081L637.385 45.4102L637.385 47.2027L626.746 50.7048ZM630.447 47.9164L635.592 46.3065L630.447 44.6965L630.447 47.9164ZM634.065 60.0336C633.224 60.0336 632.544 59.7901 632.024 59.3033C631.504 58.8164 631.188 58.1359 631.078 57.2618L626.746 60.0004L626.497 60.0004L626.497 58.3738L631.044 55.5024L631.044 53.8593L626.497 53.8593L626.497 52.2991L637.385 52.2991L637.385 56.6311C637.385 57.6822 637.108 58.5121 636.555 59.1207C636.013 59.7293 635.266 60.0336 634.314 60.0336L634.065 60.0336ZM634.314 58.49C634.845 58.49 635.255 58.324 635.542 57.9921C635.83 57.6712 635.974 57.2064 635.974 56.5979L635.974 53.8593L632.389 53.8593L632.389 56.5979C632.389 57.2175 632.533 57.6878 632.82 58.0087C633.108 58.3296 633.523 58.49 634.065 58.49L634.314 58.49ZM635.974 60.5749L637.385 60.5749L637.385 68.3426L635.974 68.3426L635.974 65.2389L626.497 65.2389L626.497 63.6953L635.974 63.6953L635.974 60.5749ZM632.339 82.5854L628.953 80.1953L626.729 82.4194L626.497 82.4194L626.497 80.5771L627.775 79.2825C627.266 78.8067 626.889 78.3088 626.646 77.7887C626.414 77.2686 626.297 76.6877 626.297 76.046C626.297 75.382 626.408 74.7956 626.629 74.2866C626.862 73.7887 627.183 73.4014 627.592 73.1248C628.012 72.8482 628.488 72.7098 629.019 72.7098L629.252 72.7098C630.303 72.7098 631.238 73.3793 632.057 74.7181L632.156 74.8841L632.439 74.602C632.881 74.1594 633.279 73.844 633.634 73.6559C633.999 73.4678 634.391 73.3737 634.812 73.3737L635.028 73.3737C635.791 73.3737 636.405 73.6614 636.87 74.2368C637.346 74.8122 637.584 75.5702 637.584 76.5107C637.584 77.4402 637.351 78.1815 636.887 78.7348C636.422 79.2991 635.802 79.5812 635.028 79.5812L634.812 79.5812C633.86 79.5812 633.025 79.0169 632.306 77.8883L631.891 77.241L629.982 79.1497L632.571 80.9588L632.571 82.5854L632.339 82.5854ZM634.845 74.8675C634.613 74.8675 634.397 74.9229 634.198 75.0335C633.999 75.1552 633.733 75.3821 633.401 75.714L632.853 76.2617L633.335 76.992C633.611 77.4125 633.855 77.7002 634.065 77.8551C634.286 78.0211 634.546 78.1041 634.845 78.1041L635.011 78.1041C635.365 78.1041 635.647 77.9547 635.858 77.6559C636.079 77.3572 636.19 76.9644 636.19 76.4775C636.19 75.9906 636.079 75.5978 635.858 75.2991C635.647 75.0114 635.365 74.8675 635.011 74.8675L634.845 74.8675ZM627.725 75.9962C627.725 76.483 627.802 76.898 627.957 77.241C628.123 77.584 628.4 77.927 628.787 78.27L631.177 75.8634L630.961 75.4982C630.674 75.0446 630.397 74.7126 630.131 74.5024C629.866 74.3032 629.584 74.2036 629.285 74.2036L629.102 74.2036C628.671 74.2036 628.333 74.3585 628.09 74.6684C627.847 74.9892 627.725 75.4318 627.725 75.9962ZM637.385 92.3384C637.385 93.1572 637.224 93.8765 636.903 94.4961C636.582 95.1158 636.129 95.5916 635.542 95.9235C634.956 96.2665 634.275 96.438 633.501 96.438L630.38 96.438C629.606 96.438 628.925 96.2665 628.339 95.9235C627.752 95.5916 627.299 95.1158 626.978 94.4961C626.657 93.8765 626.497 93.1572 626.497 92.3384L626.497 88.7036L637.385 88.7036L637.385 92.3384ZM627.907 92.3882C627.907 93.1849 628.123 93.799 628.555 94.2305C628.997 94.6621 629.617 94.8779 630.414 94.8779L633.451 94.8779C634.248 94.8779 634.867 94.6621 635.31 94.2306C635.752 93.799 635.974 93.1849 635.974 92.3882L635.974 90.2637L627.907 90.2637L627.907 92.3882ZM637.385 105.313L635.974 105.313L635.974 100.151L632.638 100.151L632.638 105.031L631.243 105.031L631.243 100.151L627.907 100.151L627.907 105.313L626.497 105.313L626.497 98.5908L637.385 98.5908L637.385 105.313ZM626.297 110.617C626.297 109.389 626.58 108.449 627.144 107.796C627.719 107.143 628.538 106.817 629.6 106.817L629.982 106.817L629.982 108.294L629.6 108.294C628.97 108.294 628.494 108.487 628.173 108.875C627.852 109.273 627.692 109.854 627.692 110.617C627.692 111.315 627.835 111.857 628.123 112.244C628.411 112.642 628.82 112.841 629.351 112.841L629.534 112.841C629.965 112.841 630.314 112.703 630.58 112.427C630.856 112.161 631.072 111.735 631.227 111.149L631.625 109.622C632.079 107.873 632.992 106.999 634.364 106.999L634.596 106.999C635.194 106.999 635.714 107.149 636.156 107.447C636.61 107.757 636.959 108.189 637.202 108.742C637.457 109.306 637.584 109.954 637.584 110.684C637.584 111.812 637.307 112.687 636.754 113.306C636.212 113.937 635.448 114.252 634.463 114.252L634.082 114.252L634.082 112.775L634.463 112.775C635.05 112.775 635.487 112.598 635.775 112.244C636.073 111.89 636.223 111.348 636.223 110.617C636.223 109.965 636.084 109.45 635.808 109.074C635.531 108.709 635.155 108.526 634.679 108.526L634.497 108.526C634.12 108.526 633.8 108.659 633.534 108.924C633.279 109.201 633.08 109.599 632.936 110.119L632.522 111.613C632.256 112.565 631.891 113.262 631.426 113.705C630.972 114.158 630.38 114.385 629.65 114.385L629.418 114.385C628.466 114.385 627.708 114.042 627.144 113.356C626.58 112.681 626.297 111.768 626.297 110.617ZM637.385 117.966L626.497 117.966L626.497 116.422L637.385 116.422L637.385 117.966ZM633.7 127.03L633.949 127.03C634.602 127.03 635.127 126.792 635.526 126.317C635.935 125.852 636.14 125.243 636.14 124.491C636.14 123.639 635.907 122.975 635.443 122.499C634.978 122.023 634.331 121.786 633.501 121.786L630.364 121.786C629.523 121.786 628.876 122.018 628.422 122.483C627.968 122.947 627.741 123.611 627.741 124.474C627.741 125.028 627.841 125.52 628.04 125.952C628.239 126.394 628.533 126.754 628.92 127.03L630.729 127.03L630.729 123.761L632.123 123.761L632.123 128.574L626.497 128.574L626.497 127.213L627.293 127.13C626.629 126.477 626.297 125.581 626.297 124.441C626.297 123.6 626.463 122.859 626.795 122.217C627.127 121.586 627.592 121.094 628.19 120.74C628.798 120.397 629.501 120.225 630.297 120.225L633.551 120.225C634.347 120.225 635.05 120.402 635.658 120.756C636.267 121.111 636.737 121.603 637.069 122.234C637.412 122.875 637.584 123.617 637.584 124.458C637.584 125.277 637.429 125.996 637.119 126.615C636.82 127.235 636.394 127.716 635.841 128.059C635.299 128.402 634.668 128.574 633.949 128.574L633.7 128.574L633.7 127.03ZM637.385 138.382L626.497 138.382L626.497 136.755L634.53 132.34L626.497 132.34L626.497 130.813L637.385 130.813L637.385 132.44L629.318 136.855L637.385 136.855L637.385 138.382ZM626.497 160.129L626.497 158.602L634.414 158.602L626.497 155.764L626.497 154.37L634.447 151.531L626.497 151.531L626.497 150.004L637.385 150.004L637.385 151.963L628.853 155.067L637.385 158.17L637.385 160.129L626.497 160.129ZM626.746 170.502L626.497 170.502L626.497 168.959L629.036 168.162L629.036 164.046L626.497 163.249L626.497 161.706L626.746 161.706L637.385 165.208L637.385 167L626.746 170.502ZM630.447 167.714L635.592 166.104L630.447 164.494L630.447 167.714ZM633.7 178.185L633.949 178.185C634.602 178.185 635.127 177.947 635.526 177.471C635.935 177.006 636.14 176.398 636.14 175.645C636.14 174.793 635.907 174.129 635.443 173.653C634.978 173.178 634.331 172.94 633.501 172.94L630.364 172.94C629.523 172.94 628.876 173.172 628.422 173.637C627.968 174.102 627.741 174.766 627.741 175.629C627.741 176.182 627.841 176.674 628.04 177.106C628.239 177.548 628.533 177.908 628.92 178.185L630.729 178.185L630.729 174.915L632.123 174.915L632.123 179.728L626.497 179.728L626.497 178.367L627.293 178.284C626.629 177.631 626.297 176.735 626.297 175.595C626.297 174.754 626.463 174.013 626.795 173.371C627.127 172.741 627.592 172.248 628.19 171.894C628.798 171.551 629.501 171.38 630.297 171.38L633.551 171.38C634.347 171.38 635.05 171.557 635.658 171.911C636.267 172.265 636.737 172.757 637.069 173.388C637.412 174.03 637.584 174.771 637.584 175.612C637.584 176.431 637.429 177.15 637.119 177.77C636.82 178.389 636.394 178.871 635.841 179.214C635.299 179.557 634.668 179.728 633.949 179.728L633.7 179.728L633.7 178.185ZM626.746 190.018L626.497 190.018L626.497 188.474L629.036 187.677L629.036 183.561L626.497 182.764L626.497 181.221L626.746 181.221L637.385 184.723L637.385 186.515L626.746 190.018ZM630.447 187.229L635.592 185.619L630.447 184.009L630.447 187.229ZM635.974 198.118L627.907 192.906L627.907 198.118L626.497 198.118L626.497 191.164L627.907 191.164L635.974 196.392L635.974 191.247L637.385 191.247L637.385 198.118L635.974 198.118ZM637.385 201.651L626.497 201.651L626.497 200.107L637.385 200.107L637.385 201.651ZM637.385 211.645L626.497 211.645L626.497 210.018L634.53 205.603L626.497 205.603L626.497 204.076L637.385 204.076L637.385 205.703L629.318 210.118L637.385 210.118L637.385 211.645ZM637.385 220.685L635.974 220.685L635.974 215.524L632.638 215.524L632.638 220.403L631.243 220.403L631.243 215.524L627.907 215.524L627.907 220.685L626.497 220.685L626.497 213.963L637.385 213.963L637.385 220.685Z" fill="black"/>
<path d="M188.368 18.1469V18.3212L185.928 25.7686H184.662L182.222 18.3212V18.1469H183.303L185.301 24.3744L187.288 18.1469H188.368ZM191.09 25.908C190.354 25.908 189.765 25.695 189.324 25.269C188.882 24.843 188.662 24.2775 188.662 23.5727V22.2134C188.662 21.5008 188.882 20.9315 189.324 20.5055C189.765 20.0795 190.354 19.8665 191.09 19.8665C191.834 19.8665 192.426 20.0795 192.868 20.5055C193.317 20.9315 193.541 21.5008 193.541 22.2134V23.5727C193.541 24.2775 193.317 24.843 192.868 25.269C192.426 25.695 191.834 25.908 191.09 25.908ZM191.102 24.9204C191.528 24.9204 191.865 24.7965 192.112 24.5486C192.368 24.3008 192.496 23.9677 192.496 23.5495V22.2482C192.496 21.8145 192.372 21.4737 192.124 21.2258C191.876 20.9779 191.535 20.854 191.102 20.854C190.676 20.854 190.335 20.9779 190.079 21.2258C189.831 21.4737 189.707 21.8145 189.707 22.2482V23.5495C189.707 23.9755 189.831 24.3124 190.079 24.5603C190.335 24.8004 190.676 24.9204 191.102 24.9204ZM196.418 25.7686C195.945 25.7686 195.577 25.6446 195.314 25.3968C195.059 25.1412 194.931 24.781 194.931 24.3163V17.6822H195.976V24.2117C195.976 24.6145 196.174 24.8159 196.569 24.8159H197.022V25.7686H196.418ZM202.55 20.0059V25.7686H201.609L201.563 25.2457C201.144 25.6872 200.602 25.908 199.936 25.908C199.285 25.908 198.77 25.7066 198.391 25.3038C198.011 24.9011 197.822 24.3511 197.822 23.654V20.0059H198.879V23.5727C198.879 23.9832 198.991 24.3124 199.216 24.5603C199.44 24.8004 199.746 24.9204 200.134 24.9204C200.436 24.9204 200.707 24.8546 200.947 24.7229C201.187 24.5835 201.373 24.3976 201.505 24.1652V20.0059H202.55ZM210.069 19.8665C210.743 19.8665 211.27 20.064 211.649 20.459C212.036 20.854 212.23 21.4039 212.23 22.1088V25.7686H211.184V22.1901C211.184 21.7796 211.068 21.4543 210.836 21.2142C210.611 20.9741 210.309 20.854 209.93 20.854C209.659 20.854 209.407 20.916 209.174 21.0399C208.942 21.1638 208.756 21.3342 208.617 21.5511C208.648 21.706 208.663 21.8919 208.663 22.1088V25.7686H207.618V22.1901C207.618 21.7796 207.501 21.4543 207.269 21.2142C207.044 20.9741 206.742 20.854 206.363 20.854C206.099 20.854 205.855 20.9121 205.631 21.0283C205.414 21.1445 205.236 21.3033 205.096 21.5046V25.7686H204.051V20.0059H204.992L205.027 20.459C205.437 20.064 205.96 19.8665 206.595 19.8665C206.951 19.8665 207.273 19.9362 207.559 20.0756C207.846 20.2073 208.078 20.4009 208.257 20.6565C208.466 20.4009 208.721 20.2073 209.023 20.0756C209.333 19.9362 209.682 19.8665 210.069 19.8665ZM214.51 23.2706V23.5495C214.51 23.9832 214.634 24.324 214.882 24.5719C215.137 24.812 215.486 24.932 215.927 24.932C216.299 24.932 216.609 24.8391 216.857 24.6532C217.112 24.4673 217.244 24.2388 217.252 23.9677H218.297C218.266 24.5409 218.034 25.0095 217.6 25.3735C217.166 25.7298 216.609 25.908 215.927 25.908C215.184 25.908 214.587 25.6988 214.138 25.2806C213.689 24.8546 213.464 24.2892 213.464 23.5843V22.2017C213.464 21.737 213.565 21.3304 213.766 20.9818C213.968 20.6255 214.254 20.3506 214.626 20.1569C214.998 19.9633 215.424 19.8665 215.904 19.8665C216.632 19.8665 217.213 20.0795 217.647 20.5055C218.08 20.9315 218.297 21.493 218.297 22.1901V23.2706H214.51ZM215.904 20.8424C215.478 20.8424 215.137 20.9702 214.882 21.2258C214.634 21.4737 214.51 21.8106 214.51 22.2366V22.3992H217.252V22.2366C217.252 21.8106 217.128 21.4737 216.88 21.2258C216.64 20.9702 216.314 20.8424 215.904 20.8424ZM225.419 25.7686H224.338V19.82C224.059 19.9284 223.73 19.9826 223.351 19.9826H222.456V18.9835H223.304C223.645 18.9835 223.901 18.9138 224.071 18.7743C224.249 18.6272 224.338 18.418 224.338 18.1469H225.419V25.7686ZM229.926 25.908C229.407 25.908 228.942 25.7995 228.532 25.5827C228.121 25.3658 227.8 25.0676 227.567 24.6881C227.343 24.3008 227.23 23.867 227.23 23.3868V20.5519C227.23 20.064 227.343 19.6302 227.567 19.2507C227.8 18.8634 228.121 18.5613 228.532 18.3445C228.942 18.1276 229.407 18.0191 229.926 18.0191C230.445 18.0191 230.906 18.1276 231.308 18.3445C231.719 18.5613 232.036 18.8634 232.261 19.2507C232.493 19.638 232.61 20.0717 232.61 20.5519V23.3868C232.61 23.867 232.493 24.3008 232.261 24.6881C232.036 25.0676 231.719 25.3658 231.308 25.5827C230.906 25.7995 230.445 25.908 229.926 25.908ZM229.926 24.8972C230.422 24.8972 230.813 24.7578 231.099 24.4789C231.386 24.1923 231.529 23.8051 231.529 23.3171V20.61C231.529 20.1298 231.382 19.7464 231.088 19.4598C230.801 19.1732 230.414 19.0299 229.926 19.0299C229.43 19.0299 229.035 19.1732 228.741 19.4598C228.454 19.7387 228.311 20.1221 228.311 20.61V23.3171C228.311 23.7973 228.454 24.1807 228.741 24.4673C229.035 24.7539 229.43 24.8972 229.926 24.8972ZM235.625 24.3395V24.4905L234.718 27.3486H233.754L234.44 24.3395H235.625ZM243.375 25.908C242.802 25.908 242.295 25.7918 241.853 25.5594C241.412 25.3193 241.071 24.9863 240.831 24.5603C240.591 24.1342 240.471 23.6463 240.471 23.0963V20.8308C240.471 20.2731 240.591 19.7813 240.831 19.3552C241.079 18.9292 241.419 18.6001 241.853 18.3677C242.295 18.1276 242.802 18.0075 243.375 18.0075C243.948 18.0075 244.456 18.1276 244.897 18.3677C245.339 18.6001 245.679 18.9331 245.92 19.3669C246.167 19.7929 246.291 20.2808 246.291 20.8308V23.0963C246.291 23.6463 246.167 24.1342 245.92 24.5603C245.679 24.9863 245.339 25.3193 244.897 25.5594C244.463 25.7918 243.956 25.908 243.375 25.908ZM243.375 24.8972C243.948 24.8972 244.398 24.7345 244.723 24.4092C245.048 24.0762 245.211 23.6269 245.211 23.0615V20.8772C245.211 20.2886 245.048 19.8316 244.723 19.5063C244.398 19.181 243.948 19.0183 243.375 19.0183C242.802 19.0183 242.357 19.181 242.039 19.5063C241.721 19.8316 241.563 20.2886 241.563 20.8772V23.0615C241.563 23.6424 241.721 24.0955 242.039 24.4208C242.357 24.7384 242.802 24.8972 243.375 24.8972ZM250.022 25.908C249.534 25.908 249.104 25.8112 248.732 25.6175C248.36 25.4239 248.074 25.1528 247.872 24.8042C247.671 24.4479 247.57 24.0374 247.57 23.5727V22.2017C247.57 21.737 247.671 21.3304 247.872 20.9818C248.074 20.6255 248.36 20.3506 248.732 20.1569C249.104 19.9633 249.534 19.8665 250.022 19.8665C250.479 19.8665 250.885 19.9633 251.242 20.1569C251.606 20.3428 251.888 20.6023 252.09 20.9353C252.291 21.2684 252.392 21.6479 252.392 22.0739V22.2017H251.346V22.0739C251.346 21.7176 251.222 21.4272 250.974 21.2026C250.726 20.9702 250.409 20.854 250.022 20.854C249.588 20.854 249.247 20.9779 248.999 21.2258C248.751 21.4659 248.627 21.799 248.627 22.225V23.5495C248.627 23.9755 248.751 24.3124 248.999 24.5603C249.247 24.8004 249.588 24.9204 250.022 24.9204C250.409 24.9204 250.726 24.812 250.974 24.5951C251.222 24.3705 251.346 24.0839 251.346 23.7354V23.6075H252.392V23.7354C252.392 24.386 252.175 24.9127 251.741 25.3154C251.307 25.7105 250.734 25.908 250.022 25.908ZM255.356 20.9586V24.0839C255.356 24.5719 255.585 24.8159 256.042 24.8159H256.971V25.7686H256.007C255.457 25.7686 255.035 25.6291 254.74 25.3503C254.454 25.0637 254.31 24.6532 254.31 24.1188V20.9586H252.788V20.0059H254.02C254.136 20.0059 254.217 19.9826 254.264 19.9362C254.31 19.8819 254.334 19.8006 254.334 19.6922V18.4606H255.356V20.0059H257.25V20.9586H255.356ZM260.21 25.908C259.474 25.908 258.885 25.695 258.444 25.269C258.002 24.843 257.782 24.2775 257.782 23.5727V22.2134C257.782 21.5008 258.002 20.9315 258.444 20.5055C258.885 20.0795 259.474 19.8665 260.21 19.8665C260.953 19.8665 261.546 20.0795 261.987 20.5055C262.437 20.9315 262.661 21.5008 262.661 22.2134V23.5727C262.661 24.2775 262.437 24.843 261.987 25.269C261.546 25.695 260.953 25.908 260.21 25.908ZM260.221 24.9204C260.647 24.9204 260.984 24.7965 261.232 24.5486C261.488 24.3008 261.616 23.9677 261.616 23.5495V22.2482C261.616 21.8145 261.492 21.4737 261.244 21.2258C260.996 20.9779 260.655 20.854 260.221 20.854C259.795 20.854 259.455 20.9779 259.199 21.2258C258.951 21.4737 258.827 21.8145 258.827 22.2482V23.5495C258.827 23.9755 258.951 24.3124 259.199 24.5603C259.455 24.8004 259.795 24.9204 260.221 24.9204ZM266.618 19.8665C267.292 19.8665 267.83 20.0756 268.233 20.4938C268.636 20.9044 268.837 21.4543 268.837 22.1436V23.6192C268.837 24.3085 268.636 24.8623 268.233 25.2806C267.83 25.6988 267.292 25.908 266.618 25.908C265.944 25.908 265.398 25.6988 264.98 25.2806L264.934 25.7686H263.992V17.6822H265.038V20.459C265.449 20.064 265.975 19.8665 266.618 19.8665ZM267.78 22.1901C267.78 21.7796 267.656 21.4543 267.408 21.2142C267.168 20.9741 266.839 20.854 266.421 20.854C266.119 20.854 265.844 20.9198 265.596 21.0515C265.356 21.1832 265.17 21.3691 265.038 21.6092V24.1536C265.17 24.3937 265.356 24.5835 265.596 24.7229C265.844 24.8546 266.119 24.9204 266.421 24.9204C266.831 24.9204 267.16 24.8004 267.408 24.5603C267.656 24.3201 267.78 23.9948 267.78 23.5843V22.1901ZM271.013 23.2706V23.5495C271.013 23.9832 271.137 24.324 271.385 24.5719C271.64 24.812 271.989 24.932 272.43 24.932C272.802 24.932 273.112 24.8391 273.36 24.6532C273.615 24.4673 273.747 24.2388 273.755 23.9677H274.8C274.769 24.5409 274.537 25.0095 274.103 25.3735C273.67 25.7298 273.112 25.908 272.43 25.908C271.687 25.908 271.09 25.6988 270.641 25.2806C270.192 24.8546 269.967 24.2892 269.967 23.5843V22.2017C269.967 21.737 270.068 21.3304 270.269 20.9818C270.471 20.6255 270.757 20.3506 271.129 20.1569C271.501 19.9633 271.927 19.8665 272.407 19.8665C273.135 19.8665 273.716 20.0795 274.15 20.5055C274.584 20.9315 274.8 21.493 274.8 22.1901V23.2706H271.013ZM272.407 20.8424C271.981 20.8424 271.64 20.9702 271.385 21.2258C271.137 21.4737 271.013 21.8106 271.013 22.2366V22.3992H273.755V22.2366C273.755 21.8106 273.631 21.4737 273.383 21.2258C273.143 20.9702 272.818 20.8424 272.407 20.8424ZM279.374 20.0059V20.9586H278.538C278.251 20.9586 277.996 21.0244 277.771 21.1561C277.546 21.28 277.368 21.462 277.236 21.7021V25.7686H276.191V20.0059H277.132L277.167 20.4938C277.546 20.1685 278.019 20.0059 278.584 20.0059H279.374ZM285.516 18.0075C286.042 18.0075 286.511 18.1121 286.922 18.3212C287.332 18.5303 287.65 18.8247 287.874 19.2042C288.107 19.5837 288.223 20.0175 288.223 20.5055V23.3403C288.223 23.8438 288.111 24.2892 287.886 24.6764C287.661 25.0637 287.344 25.3658 286.933 25.5827C286.53 25.7995 286.062 25.908 285.527 25.908C285.032 25.908 284.586 25.8189 284.191 25.6408C283.796 25.4549 283.486 25.2031 283.262 24.8856C283.045 24.5603 282.936 24.1885 282.936 23.7702V23.6308H284.017V23.7702C284.017 24.111 284.156 24.386 284.435 24.5951C284.722 24.8042 285.086 24.9088 285.527 24.9088C286.015 24.9088 286.406 24.7694 286.701 24.4905C286.995 24.204 287.142 23.8283 287.142 23.3636V22.3876C286.678 22.7517 286.108 22.9337 285.434 22.9337C284.939 22.9337 284.497 22.8369 284.11 22.6432C283.73 22.4496 283.432 22.1785 283.215 21.8299C283.006 21.4814 282.902 21.0864 282.902 20.6449V20.3312C282.902 19.8819 283.01 19.4831 283.227 19.1345C283.452 18.7782 283.761 18.5032 284.156 18.3096C284.551 18.1082 285.005 18.0075 285.516 18.0075ZM285.516 21.9461C285.895 21.9461 286.224 21.8803 286.503 21.7486C286.782 21.6169 286.995 21.4311 287.142 21.1909V20.5171C287.142 20.0678 286.991 19.7038 286.689 19.425C286.387 19.1461 285.996 19.0067 285.516 19.0067C285.043 19.0067 284.668 19.1268 284.389 19.3669C284.118 19.5992 283.982 19.9168 283.982 20.3196V20.6216C283.982 21.0399 284.114 21.3652 284.377 21.5976C284.648 21.8299 285.028 21.9461 285.516 21.9461Z" fill="black"/>
<path d="M61.7562 369.359V370.74L53.4706 396.871H44.654L50.9213 369.359H61.7562ZM84.7007 369.359V370.74L76.4151 396.871H67.5985L73.8658 369.359H84.7007Z" fill="black"/>
<path fill-rule="evenodd" clip-rule="evenodd" d="M622.409 407.038H179.253V622.41H299.927C299.787 620.238 299.716 618.048 299.716 615.84C299.716 560.197 344.824 515.09 400.467 515.09C456.109 515.09 501.217 560.197 501.217 615.84C501.217 618.048 501.146 620.238 501.006 622.41H622.409V407.038Z" fill="#0723A6"/>
<rect x="179.254" y="185.063" width="219.088" height="221.578" fill="#FDE300"/>
<ellipse cx="510.376" cy="295.852" rx="112.034" ry="110.789" fill="#296E35"/>
</svg>
