<svg width="1024" height="864" viewBox="0 0 1024 864" fill="none" xmlns="http://www.w3.org/2000/svg">
<path d="M251.471 428.195C281.598 443.081 296.662 467.006 296.662 499.968V511.664C296.662 531.158 290.636 548.526 278.585 563.766C266.889 579.007 250.408 590.88 229.142 599.387C207.876 607.539 183.243 611.615 155.242 611.615C108.102 611.615 72.3046 600.273 47.8486 577.589C23.3927 554.551 11.1647 521.943 11.1647 479.765V472.322H106.862V478.702C106.862 493.234 111.292 504.576 120.153 512.728C129.014 520.88 141.597 524.956 157.901 524.956C171.369 524.956 181.825 522.652 189.268 518.044C197.066 513.082 200.964 506.348 200.964 497.841V493.588C200.964 484.727 197.597 478.525 190.863 474.98C184.483 471.082 173.496 469.132 157.901 469.132H133.976V390.979H159.495C172.255 390.979 181.648 389.03 187.673 385.131C193.698 380.878 196.711 374.498 196.711 365.992V363.334C196.711 354.827 193.167 348.27 186.078 343.662C178.989 339.055 169.065 336.751 156.306 336.751C140.71 336.751 128.837 340.65 120.685 348.447C112.887 355.89 108.989 367.055 108.989 381.941V388.321H13.2913V379.815C13.2913 338.346 25.3421 306.27 49.4436 283.586C73.8996 260.548 109.166 249.028 155.242 249.028C182.179 249.028 205.926 253.104 226.484 261.256C247.395 269.408 263.522 280.928 274.864 295.814C286.206 310.7 291.877 327.89 291.877 347.384V359.612C291.877 389.384 278.408 412.246 251.471 428.195Z" fill="#0723A6"/>
<path d="M512.755 249.028C537.566 249.028 559.718 253.282 579.212 261.788C598.706 269.94 613.769 281.282 624.402 295.814C635.39 309.991 640.883 325.941 640.883 343.662C640.883 349.688 639.997 356.599 638.225 364.397L635.567 376.625C630.25 404.625 613.415 424.828 585.06 437.233C604.199 451.056 613.769 469.487 613.769 492.525C613.769 499.259 613.06 505.462 611.642 511.133L608.984 522.297C603.668 549.589 588.25 571.387 562.731 587.691C537.566 603.64 506.375 611.615 469.16 611.615C428.045 611.615 395.792 602.045 372.399 582.906C349.361 563.412 337.842 537.361 337.842 504.753C337.842 496.955 339.082 486.5 341.563 473.385L343.158 465.942H436.197L434.603 472.322C433.185 480.12 432.476 485.436 432.476 488.272C432.476 500.322 436.02 509.538 443.109 515.918C450.552 522.297 461.185 525.487 475.008 525.487C501.591 525.487 516.654 516.981 520.198 499.968L521.262 495.715C521.616 494.297 521.793 492.525 521.793 490.398C521.793 476.221 509.388 469.132 484.578 469.132H460.653L478.198 390.979H506.375C518.426 390.979 527.464 389.03 533.49 385.131C539.87 381.232 543.946 375.207 545.718 367.055L546.249 364.397C546.604 362.979 546.781 361.207 546.781 359.08C546.781 351.637 543.414 345.966 536.68 342.067C530.3 337.814 521.085 335.688 509.034 335.688C480.325 335.688 462.957 349.865 456.932 378.22L455.337 384.6H359.64L361.766 376.093C371.336 333.561 388.526 301.839 413.336 280.928C438.147 259.661 471.286 249.028 512.755 249.028Z" fill="#0723A6"/>
<path d="M869.737 249.028C893.484 249.028 914.573 253.282 933.004 261.788C951.434 270.295 965.789 281.814 976.067 296.345C986.701 310.877 992.017 327.004 992.017 344.726C992.017 356.777 989.359 369.182 984.042 381.941L978.726 394.169C972.7 407.638 964.726 418.625 954.801 427.132C944.877 435.284 931.763 441.486 915.459 445.74C927.864 458.854 934.067 473.563 934.067 489.867C934.067 500.5 931.409 511.487 926.092 522.829L921.307 533.462C910.32 557.564 892.421 576.703 867.611 590.88C843.155 604.703 814.8 611.615 782.546 611.615C757.736 611.615 736.115 607.716 717.685 599.919C699.254 591.767 685.077 580.602 675.153 566.424C665.229 551.893 660.266 535.411 660.266 516.981C660.266 501.386 663.988 484.905 671.431 467.537L674.621 460.094H765.002L762.344 466.474C757.736 477.107 755.432 486.854 755.432 495.715C755.432 505.285 758.445 512.728 764.47 518.044C770.85 523.361 779.888 526.019 791.584 526.019C804.698 526.019 814.977 524.247 822.42 520.702C829.863 516.804 835.357 510.778 838.901 502.626L841.028 497.841C842.446 495.006 843.155 491.993 843.155 488.803C843.155 482.778 840.319 477.993 834.648 474.449C828.977 470.904 821.18 469.132 811.256 469.132H787.331L821.889 390.979H852.724C864.066 390.979 873.104 389.207 879.839 385.663C886.573 382.119 891.358 376.448 894.193 368.65L895.256 365.992C896.674 362.802 897.383 359.612 897.383 356.422C897.383 349.688 894.193 344.549 887.813 341.004C881.788 337.105 873.104 335.156 861.762 335.156C847.585 335.156 835.889 338.346 826.673 344.726C817.813 351.106 810.369 361.207 804.344 375.03L801.686 381.41H705.988L709.71 372.903C729.204 329.308 751.533 297.763 776.698 278.269C801.863 258.775 832.876 249.028 869.737 249.028Z" fill="#0723A6"/>
<line x1="175.693" y1="1.99993e-07" x2="175.692" y2="860.159" stroke="#F6472C" stroke-width="9.15063"/>
<line x1="1019.25" y1="1.69239" x2="676.822" y2="861.774" stroke="#F6472C" stroke-width="9.15063"/>
<line x1="598.159" y1="0.910041" x2="423.583" y2="861.069" stroke="#F6472C" stroke-width="9.15063"/>
</svg>
